<?xml version="1.0" encoding="UTF-8"?>
<!DOCTYPE svg PUBLIC "-//W3C//DTD SVG 1.1//EN" "http://www.w3.org/Graphics/SVG/1.1/DTD/svg11.dtd">
<svg xmlns="http://www.w3.org/2000/svg" version="1.1" width="1200px" height="900px" style="shape-rendering:geometricPrecision; text-rendering:geometricPrecision; image-rendering:optimizeQuality; fill-rule:evenodd; clip-rule:evenodd" xmlns:xlink="http://www.w3.org/1999/xlink">
<g><path style="opacity:1" fill="#83d4b6" d="M 367.5,135.5 C 379.838,135.333 392.171,135.5 404.5,136C 418.949,140.118 427.449,149.618 430,164.5C 430.827,187.406 430.66,210.239 429.5,233C 428.833,233.667 428.167,233.667 427.5,233C 421.436,222.959 415.436,212.959 409.5,203C 395.5,202.667 381.5,202.333 367.5,202C 352.641,198.494 343.474,189.327 340,174.5C 338.221,153.488 347.387,140.488 367.5,135.5 Z M 364.5,167.5 C 368.35,167.701 369.35,169.534 367.5,173C 362.676,173.183 361.676,171.35 364.5,167.5 Z M 381.5,167.5 C 386.159,167.015 387.492,168.848 385.5,173C 380.728,173.81 379.395,171.977 381.5,167.5 Z M 400.5,167.5 C 404.35,167.701 405.35,169.534 403.5,173C 401.045,173.772 399.378,172.939 398.5,170.5C 398.942,169.261 399.609,168.261 400.5,167.5 Z"/></g>
<g><path style="opacity:1" fill="#84d4b6" d="M 946.5,140.5 C 960.218,140.094 973.885,140.594 987.5,142C 1000.09,147.003 1007.59,156.169 1010,169.5C 1010.5,192.831 1010.67,216.164 1010.5,239.5C 1008.86,239.714 1007.36,239.38 1006,238.5C 1000.96,228.92 995.794,219.42 990.5,210C 975.739,208.825 960.905,207.992 946,207.5C 929.414,202.57 920.581,191.403 919.5,174C 919.656,163.52 923.656,154.853 931.5,148C 936.633,145.433 941.633,142.933 946.5,140.5 Z M 944.5,173.5 C 948.161,173.35 949.161,174.85 947.5,178C 942.967,178.413 941.967,176.913 944.5,173.5 Z M 962.5,173.5 C 964.423,173.795 966.09,174.628 967.5,176C 965.229,179 962.896,179.166 960.5,176.5C 961.193,175.482 961.859,174.482 962.5,173.5 Z M 980.5,173.5 C 984.161,173.35 985.161,174.85 983.5,178C 978.522,178.864 977.522,177.364 980.5,173.5 Z"/></g>
<g><path style="opacity:1" fill="#fec1b6" d="M 258.5,150.5 C 269.873,150.207 281.206,150.707 292.5,152C 310.454,158.618 318.62,171.451 317,190.5C 313.958,205.209 305.125,214.376 290.5,218C 276.167,218.333 261.833,218.667 247.5,219C 241.447,228.13 235.947,237.63 231,247.5C 229.989,248.337 228.822,248.67 227.5,248.5C 227.038,223.115 227.538,197.782 229,172.5C 234.798,159.691 244.631,152.358 258.5,150.5 Z M 290.5,185.5 C 295.318,187.734 295.485,190.067 291,192.5C 289.286,191.924 288.119,190.757 287.5,189C 288.71,187.961 289.71,186.794 290.5,185.5 Z M 253.5,186.5 C 257.527,186.26 258.861,187.926 257.5,191.5C 252.732,192.889 251.398,191.223 253.5,186.5 Z M 271.5,186.5 C 275.903,185.893 277.236,187.56 275.5,191.5C 270.733,192.899 269.4,191.232 271.5,186.5 Z"/></g>
<g><path style="opacity:1" fill="#fec1b6" d="M 845.5,168.5 C 858.171,168.333 870.838,168.5 883.5,169C 903.929,176.025 912.429,190.192 909,211.5C 907.209,216.635 904.542,221.301 901,225.5C 897.057,229.221 892.557,232.055 887.5,234C 871.54,235.111 855.54,236.111 839.5,237C 835.3,244.52 831.134,252.02 827,259.5C 825.327,262.001 823.493,264.334 821.5,266.5C 820.914,266.291 820.414,265.957 820,265.5C 819.833,254.333 819.667,243.167 819.5,232C 819.393,218.794 819.893,205.628 821,192.5C 823.351,186.305 826.851,180.805 831.5,176C 836.119,173.203 840.785,170.703 845.5,168.5 Z M 846.5,203.5 C 850.225,203.537 851.558,205.204 850.5,208.5C 845.733,209.899 844.4,208.232 846.5,203.5 Z M 864.5,203.5 C 867.243,203.077 868.576,204.244 868.5,207C 866.586,211.376 864.586,211.209 862.5,206.5C 863.193,205.482 863.859,204.482 864.5,203.5 Z M 882.5,203.5 C 886.35,203.701 887.35,205.534 885.5,209C 880.289,209.546 879.289,207.713 882.5,203.5 Z"/></g>
<g><path style="opacity:1" fill="#2a3c5c" d="M 195.5,217.5 C 194.5,217.5 193.5,217.5 192.5,217.5C 192.5,215.5 192.5,213.5 192.5,211.5C 182.23,213.644 171.897,213.978 161.5,212.5C 156.3,209.448 150.634,207.781 144.5,207.5C 144.085,202.794 144.752,198.294 146.5,194C 155.053,191.848 163.72,190.348 172.5,189.5C 170.784,183.021 173.117,179.021 179.5,177.5C 183.745,178.744 186.745,181.411 188.5,185.5C 193.023,182.372 196.857,183.039 200,187.5C 200.333,190.833 200.667,194.167 201,197.5C 205.667,201.167 205.667,204.833 201,208.5C 201.08,212.855 199.247,215.855 195.5,217.5 Z"/></g>
<g><path style="opacity:1" fill="#fdc368" d="M 1106.5,294.5 C 1105.85,294.804 1105.18,295.137 1104.5,295.5C 1099.37,293.402 1094.21,291.402 1089,289.5C 1088.1,289.743 1087.26,290.077 1086.5,290.5C 1086.21,280.831 1085.88,271.165 1085.5,261.5C 1095.26,261.438 1098.43,256.771 1095,247.5C 1093.21,245.372 1091.04,244.039 1088.5,243.5C 1093.91,235.607 1091.91,231.774 1082.5,232C 1074.91,239.243 1067.24,239.243 1059.5,232C 1054.96,227.625 1050.62,223.125 1046.5,218.5C 1044.09,221.659 1041.92,224.993 1040,228.5C 1039.72,227.584 1039.22,226.918 1038.5,226.5C 1040.12,215.779 1045.45,207.279 1054.5,201C 1076.94,193.885 1093.44,200.718 1104,221.5C 1109.03,245.672 1109.87,270.006 1106.5,294.5 Z"/></g>
<g><path style="opacity:0.184" fill="#120a3e" d="M 807.5,227.5 C 806.957,227.56 806.624,227.893 806.5,228.5C 807.456,230.075 808.123,231.742 808.5,233.5C 808.649,234.552 808.483,235.552 808,236.5C 807.079,233.664 805.912,230.998 804.5,228.5C 803.487,223.738 801.153,220.572 797.5,219C 792.14,216.491 787.474,213.991 783.5,211.5C 777.13,211.734 770.797,212.234 764.5,213C 760.571,216.313 756.738,219.813 753,223.5C 748.554,230.058 744.887,237.058 742,244.5C 741.768,243.263 741.268,242.263 740.5,241.5C 743.707,232.75 748.207,224.75 754,217.5C 761.945,209.778 771.445,207.278 782.5,210C 790.984,210.993 798.151,214.493 804,220.5C 805.18,222.86 806.347,225.193 807.5,227.5 Z"/></g>
<g><path style="opacity:1" fill="#1d1f44" d="M 492.5,211.5 C 492.423,212.75 491.756,213.583 490.5,214C 496.932,216.215 502.765,219.381 508,223.5C 509.654,227.784 511.154,232.118 512.5,236.5C 513.842,235.098 514.676,235.431 515,237.5C 518.409,236.378 521.909,236.211 525.5,237C 526.274,239.405 526.774,241.905 527,244.5C 528.202,242.323 528.702,239.989 528.5,237.5C 529.776,240.03 529.776,242.697 528.5,245.5C 530.184,246.15 531.517,247.15 532.5,248.5C 526.833,248.664 526.5,248.997 531.5,249.5C 530.395,255.416 526.728,258.583 520.5,259C 521.711,260.113 521.711,261.28 520.5,262.5C 531.477,279.775 540.143,297.775 546.5,316.5C 539.75,311.924 533.417,306.758 527.5,301C 522.261,298.213 516.928,295.713 511.5,293.5C 504.105,290.035 496.438,287.368 488.5,285.5C 488.5,284.833 488.5,284.167 488.5,283.5C 492.112,284.511 495.779,284.678 499.5,284C 501.635,283.124 502.969,281.624 503.5,279.5C 508.185,272.358 506.851,266.358 499.5,261.5C 501.842,258.283 502.009,254.95 500,251.5C 496.06,249.85 491.893,249.017 487.5,249C 480.111,240.722 474.944,231.222 472,220.5C 468.36,223.457 464.193,225.29 459.5,226C 457.106,227.952 455.606,230.452 455,233.5C 454.23,234.598 453.397,234.598 452.5,233.5C 458.283,213.262 471.616,205.929 492.5,211.5 Z"/></g>
<g><path style="opacity:1" fill="#fc907b" d="M 195.5,217.5 C 194.699,219.042 194.366,220.708 194.5,222.5C 193.414,222.62 192.747,223.287 192.5,224.5C 192.747,225.713 193.414,226.38 194.5,226.5C 195.423,238.524 193.923,250.19 190,261.5C 189.167,263.667 187.667,265.167 185.5,266C 182.854,266.497 180.187,266.664 177.5,266.5C 173.522,265.097 169.522,264.764 165.5,265.5C 166.04,266.748 166.707,267.915 167.5,269C 170.482,269.498 173.482,269.665 176.5,269.5C 177.198,274.304 178.531,278.971 180.5,283.5C 176.738,292.716 169.738,296.216 159.5,294C 151.985,290.154 145.318,285.154 139.5,279C 137.866,278.506 136.199,278.34 134.5,278.5C 138.179,275.388 140.679,271.388 142,266.5C 144.787,258.362 145.787,250.028 145,241.5C 143.022,238.876 142.188,235.876 142.5,232.5C 142.289,229.514 142.956,226.847 144.5,224.5C 149.489,223.391 153.156,225.058 155.5,229.5C 156.333,228.5 157.167,227.5 158,226.5C 158.036,221.505 159.202,216.839 161.5,212.5C 171.897,213.978 182.23,213.644 192.5,211.5C 192.5,213.5 192.5,215.5 192.5,217.5C 193.5,217.5 194.5,217.5 195.5,217.5 Z"/></g>
<g><path style="opacity:1" fill="#18014b" d="M 804.5,228.5 C 803.185,227.524 801.852,226.524 800.5,225.5C 795.353,231.814 790.02,237.981 784.5,244C 782.099,246.062 779.433,247.729 776.5,249C 771.633,247.858 766.633,247.192 761.5,247C 757.321,251.586 757.655,255.753 762.5,259.5C 758.19,264.883 757.357,270.883 760,277.5C 763.102,281.353 766.935,282.353 771.5,280.5C 771.138,284.259 769.805,287.593 767.5,290.5C 759.375,293.73 751.375,297.23 743.5,301C 734.488,310.192 728.488,321.025 725.5,333.5C 723.249,343.99 721.916,354.657 721.5,365.5C 720.849,366.091 720.182,366.757 719.5,367.5C 713.167,365.333 706.833,363.167 700.5,361C 702.898,359.364 704.065,357.198 704,354.5C 702.264,357.739 699.764,360.073 696.5,361.5C 699.612,358.72 701.945,355.386 703.5,351.5C 704.496,351.414 705.329,351.748 706,352.5C 707.667,349.167 709.333,345.833 711,342.5C 720.437,310.856 730.27,279.356 740.5,248C 740.07,247.035 739.404,246.535 738.5,246.5C 738.893,244.716 739.559,243.05 740.5,241.5C 741.268,242.263 741.768,243.263 742,244.5C 744.887,237.058 748.554,230.058 753,223.5C 756.738,219.813 760.571,216.313 764.5,213C 770.797,212.234 777.13,211.734 783.5,211.5C 787.474,213.991 792.14,216.491 797.5,219C 801.153,220.572 803.487,223.738 804.5,228.5 Z"/></g>
<g><path style="opacity:1" fill="#cb7d75" d="M 144.5,207.5 C 150.634,207.781 156.3,209.448 161.5,212.5C 159.202,216.839 158.036,221.505 158,226.5C 157.167,227.5 156.333,228.5 155.5,229.5C 153.156,225.058 149.489,223.391 144.5,224.5C 144.5,218.833 144.5,213.167 144.5,207.5 Z"/></g>
<g><path style="opacity:1" fill="#2c2348" d="M 185.5,220.5 C 188.168,220.834 190.168,222.167 191.5,224.5C 189.516,225.706 187.516,225.706 185.5,224.5C 184.374,223.192 184.374,221.858 185.5,220.5 Z"/></g>
<g><path style="opacity:0.055" fill="#5c364f" d="M 194.5,222.5 C 194.5,223.833 194.5,225.167 194.5,226.5C 193.414,226.38 192.747,225.713 192.5,224.5C 192.747,223.287 193.414,222.62 194.5,222.5 Z"/></g>
<g><path style="opacity:1" fill="#252046" d="M 174.5,224.5 C 177.5,224.167 178.833,225.5 178.5,228.5C 175.753,228.813 173.086,228.48 170.5,227.5C 171.901,226.479 173.235,225.479 174.5,224.5 Z"/></g>
<g><path style="opacity:0.035" fill="#6e595a" d="M 807.5,227.5 C 808.877,229.289 809.877,231.289 810.5,233.5C 809.833,233.5 809.167,233.5 808.5,233.5C 808.123,231.742 807.456,230.075 806.5,228.5C 806.624,227.893 806.957,227.56 807.5,227.5 Z"/></g>
<g><path style="opacity:1" fill="#463038" d="M 185.5,233.5 C 187.898,234.882 188.065,236.549 186,238.5C 184.212,236.977 184.045,235.31 185.5,233.5 Z"/></g>
<g><path style="opacity:0.67" fill="#060428" d="M 492.5,211.5 C 499.021,214.51 505.188,218.177 511,222.5C 512.772,226.313 513.605,230.313 513.5,234.5C 517.846,234.334 522.179,234.501 526.5,235C 527.756,235.417 528.423,236.25 528.5,237.5C 528.702,239.989 528.202,242.323 527,244.5C 526.774,241.905 526.274,239.405 525.5,237C 521.909,236.211 518.409,236.378 515,237.5C 514.676,235.431 513.842,235.098 512.5,236.5C 511.154,232.118 509.654,227.784 508,223.5C 502.765,219.381 496.932,216.215 490.5,214C 491.756,213.583 492.423,212.75 492.5,211.5 Z"/></g>
<g><path style="opacity:1" fill="#fc917d" d="M 1088.5,243.5 C 1080.26,244.995 1077.42,249.662 1080,257.5C 1081.45,259.464 1083.28,260.797 1085.5,261.5C 1085.88,271.165 1086.21,280.831 1086.5,290.5C 1080.57,296.797 1073.24,300.463 1064.5,301.5C 1062.31,301.674 1060.47,301.007 1059,299.5C 1058.71,297.08 1058.21,294.746 1057.5,292.5C 1058.78,284.499 1059.78,276.499 1060.5,268.5C 1066.24,270.597 1069.07,268.597 1069,262.5C 1065.81,263.767 1062.65,264.767 1059.5,265.5C 1057.1,265.552 1054.76,265.219 1052.5,264.5C 1046.99,261.659 1043.32,257.326 1041.5,251.5C 1041.34,248.391 1040.68,245.391 1039.5,242.5C 1038.73,243.612 1037.73,244.279 1036.5,244.5C 1037.17,242.5 1037.83,240.5 1038.5,238.5C 1039.83,238.5 1041.17,238.5 1042.5,238.5C 1042.34,240.857 1042.5,243.19 1043,245.5C 1044.16,246.993 1044.99,246.826 1045.5,245C 1044.27,241.97 1043.43,239.137 1043,236.5C 1041.29,235.862 1039.46,235.862 1037.5,236.5C 1037.25,233.061 1037.59,229.728 1038.5,226.5C 1039.22,226.918 1039.72,227.584 1040,228.5C 1041.92,224.993 1044.09,221.659 1046.5,218.5C 1050.62,223.125 1054.96,227.625 1059.5,232C 1067.24,239.243 1074.91,239.243 1082.5,232C 1091.91,231.774 1093.91,235.607 1088.5,243.5 Z"/></g>
<g><path style="opacity:1" fill="#121330" d="M 1049.5,232.5 C 1051.43,232.231 1053.1,232.731 1054.5,234C 1053.67,234.167 1052.83,234.333 1052,234.5C 1050.62,234.316 1049.79,233.649 1049.5,232.5 Z"/></g>
<g><path style="opacity:1" fill="#211929" d="M 175.5,234.5 C 177.344,235.204 177.844,236.537 177,238.5C 175.812,237.437 175.312,236.103 175.5,234.5 Z"/></g>
<g><path style="opacity:1" fill="#a66262" d="M 1038.5,238.5 C 1038.17,237.833 1037.83,237.167 1037.5,236.5C 1039.46,235.862 1041.29,235.862 1043,236.5C 1043.43,239.137 1044.27,241.97 1045.5,245C 1044.99,246.826 1044.16,246.993 1043,245.5C 1042.5,243.19 1042.34,240.857 1042.5,238.5C 1041.17,238.5 1039.83,238.5 1038.5,238.5 Z"/></g>
<g><path style="opacity:1" fill="#16132f" d="M 1050.5,241.5 C 1052.23,241.843 1052.73,242.843 1052,244.5C 1050.96,243.756 1050.46,242.756 1050.5,241.5 Z"/></g>
<g><path style="opacity:1" fill="#fc8f7a" d="M 313.5,293.5 C 305.584,289.542 297.584,285.542 289.5,281.5C 288.614,280.675 288.281,279.675 288.5,278.5C 287.445,268.451 286.112,258.451 284.5,248.5C 285.081,246.276 286.414,245.443 288.5,246C 290.276,249.441 292.443,252.608 295,255.5C 299.511,247.472 302.011,238.805 302.5,229.5C 302.793,226.091 304.293,223.425 307,221.5C 308.585,222.376 309.585,223.709 310,225.5C 310.333,230.167 310.667,234.833 311,239.5C 314.381,235.241 317.881,231.074 321.5,227C 322.333,226.833 323.167,226.667 324,226.5C 326.552,227.371 328.886,228.705 331,230.5C 331.543,233.868 331.376,237.201 330.5,240.5C 336.018,238.044 338.185,239.711 337,245.5C 329.92,261.991 322.087,277.991 313.5,293.5 Z"/></g>
<g><path style="opacity:1" fill="#d4645e" d="M 323.5,236.5 C 324.239,236.369 324.906,236.536 325.5,237C 322.819,242.032 320.152,247.032 317.5,252C 318.593,253.365 319.926,253.699 321.5,253C 328.856,240.69 329.523,241.024 323.5,254C 323.988,255.584 324.988,256.751 326.5,257.5C 326.167,257.833 325.833,258.167 325.5,258.5C 318.311,255.073 311.311,251.407 304.5,247.5C 304.833,247.167 305.167,246.833 305.5,246.5C 308.833,248.167 312.167,249.833 315.5,251.5C 318.449,246.6 321.115,241.6 323.5,236.5 Z"/></g>
<g><path style="opacity:0.571" fill="#fbe5de" d="M 175.5,246.5 C 179.846,246.334 184.179,246.501 188.5,247C 183.818,254.377 179.484,254.21 175.5,246.5 Z"/></g>
<g><path style="opacity:0.088" fill="#0c092a" d="M 532.5,248.5 C 534.942,250.139 535.109,252.139 533,254.5C 530.238,258.079 526.738,260.579 522.5,262C 523.333,263.5 524.5,264.667 526,265.5C 535.355,283.205 543.855,301.205 551.5,319.5C 549.067,319.727 547.401,318.727 546.5,316.5C 540.143,297.775 531.477,279.775 520.5,262.5C 521.711,261.28 521.711,260.113 520.5,259C 526.728,258.583 530.395,255.416 531.5,249.5C 526.5,248.997 526.833,248.664 532.5,248.5 Z"/></g>
<g><path style="opacity:1" fill="#fdf5f3" d="M 1050.5,251.5 C 1051.83,251.5 1053.17,251.5 1054.5,251.5C 1053.36,258.369 1050.36,259.203 1045.5,254C 1047.31,253.243 1048.98,252.41 1050.5,251.5 Z"/></g>
<g><path style="opacity:0.945" fill="#fdf6e8" d="M 1088.5,243.5 C 1091.04,244.039 1093.21,245.372 1095,247.5C 1098.43,256.771 1095.26,261.438 1085.5,261.5C 1083.28,260.797 1081.45,259.464 1080,257.5C 1077.42,249.662 1080.26,244.995 1088.5,243.5 Z"/></g>
<g><path style="opacity:1" fill="#fc907a" d="M 1007.5,323.5 C 1007.05,327.94 1008.72,331.273 1012.5,333.5C 1014.81,337.777 1016.81,342.11 1018.5,346.5C 1018.19,355.267 1018.86,363.934 1020.5,372.5C 1016.34,373.119 1012.17,373.785 1008,374.5C 1002.13,372.893 997.459,369.559 994,364.5C 991.667,360.833 989.333,357.167 987,353.5C 981.746,342.734 977.079,331.734 973,320.5C 964.904,295.719 957.738,270.719 951.5,245.5C 953.362,242.098 954.362,238.431 954.5,234.5C 957.561,234.444 959.728,235.778 961,238.5C 961.497,235.854 961.664,233.187 961.5,230.5C 964.244,231.51 966.577,231.176 968.5,229.5C 969.478,229.977 970.311,230.643 971,231.5C 973.333,239.5 975.667,247.5 978,255.5C 979.715,253.241 981.548,251.074 983.5,249C 984.448,248.517 985.448,248.351 986.5,248.5C 986.655,257.226 985.322,265.726 982.5,274C 990.488,290.81 998.821,307.31 1007.5,323.5 Z"/></g>
<g><path style="opacity:1" fill="#fbc269" d="M 804.5,228.5 C 805.912,230.998 807.079,233.664 808,236.5C 808.483,235.552 808.649,234.552 808.5,233.5C 809.167,233.5 809.833,233.5 810.5,233.5C 810.419,239.023 810.752,244.523 811.5,250C 812.201,259.14 808.534,265.64 800.5,269.5C 794.551,268.421 788.551,268.254 782.5,269C 783.732,272.798 785.732,276.131 788.5,279C 791.275,281.916 794.108,282.082 797,279.5C 797.383,280.056 797.883,280.389 798.5,280.5C 797.586,283.728 797.253,287.061 797.5,290.5C 798.791,290.263 799.791,290.596 800.5,291.5C 798.833,291.5 797.167,291.5 795.5,291.5C 795.161,302.915 789.828,305.748 779.5,300C 775.025,297.35 771.025,294.183 767.5,290.5C 769.805,287.593 771.138,284.259 771.5,280.5C 776.143,274.536 776.643,268.202 773,261.5C 769.921,258.515 766.421,257.848 762.5,259.5C 757.655,255.753 757.321,251.586 761.5,247C 766.633,247.192 771.633,247.858 776.5,249C 779.433,247.729 782.099,246.062 784.5,244C 790.02,237.981 795.353,231.814 800.5,225.5C 801.852,226.524 803.185,227.524 804.5,228.5 Z"/></g>
<g><path style="opacity:1" fill="#fdfaf4" d="M 803.5,251.5 C 805.688,252.536 805.688,254.036 803.5,256C 800.997,256.874 798.997,256.207 797.5,254C 799.723,253.434 801.723,252.6 803.5,251.5 Z"/></g>
<g><path style="opacity:1" fill="#fd8b32" d="M 763.5,250.5 C 766.246,250.928 767.913,252.594 768.5,255.5C 768.167,255.833 767.833,256.167 767.5,256.5C 765.5,255.167 763.5,253.833 761.5,252.5C 762.243,251.818 762.909,251.151 763.5,250.5 Z"/></g>
<g><path style="opacity:1" fill="#38334f" d="M 794.5,244.5 C 796.465,244.948 796.798,245.948 795.5,247.5C 794.614,246.675 794.281,245.675 794.5,244.5 Z"/></g>
<g><path style="opacity:1" fill="#39344c" d="M 802.5,241.5 C 804.332,242.14 804.665,243.14 803.5,244.5C 802.614,243.675 802.281,242.675 802.5,241.5 Z"/></g>
<g><path style="opacity:1" fill="#2c294b" d="M 791.5,237.5 C 794.797,237.329 795.131,237.995 792.5,239.5C 791.702,239.043 791.369,238.376 791.5,237.5 Z"/></g>
<g><path style="opacity:1" fill="#3c384e" d="M 801.5,235.5 C 803.429,235.231 805.095,235.731 806.5,237C 805.667,237.167 804.833,237.333 804,237.5C 802.624,237.316 801.791,236.649 801.5,235.5 Z"/></g>
<g><path style="opacity:1" fill="#fdf8ec" d="M 1041.5,251.5 C 1043.32,257.326 1046.99,261.659 1052.5,264.5C 1048.66,268.42 1044.66,268.42 1040.5,264.5C 1037.57,259.761 1037.9,255.427 1041.5,251.5 Z"/></g>
<g><path style="opacity:1" fill="#f5eee4" d="M 771.5,280.5 C 766.935,282.353 763.102,281.353 760,277.5C 757.357,270.883 758.19,264.883 762.5,259.5C 766.421,257.848 769.921,258.515 773,261.5C 776.643,268.202 776.143,274.536 771.5,280.5 Z"/></g>
<g><path style="opacity:1" fill="#f6c66a" d="M 771.5,275.5 C 771.737,271.727 771.237,268.06 770,264.5C 768.654,262.658 766.821,261.658 764.5,261.5C 764.811,260.522 765.478,259.855 766.5,259.5C 773.639,263.189 775.306,268.522 771.5,275.5 Z"/></g>
<g><path style="opacity:1" fill="#60b493" d="M 499.5,261.5 C 506.851,266.358 508.185,272.358 503.5,279.5C 502.969,281.624 501.635,283.124 499.5,284C 495.779,284.678 492.112,284.511 488.5,283.5C 480.169,275.98 480.503,268.813 489.5,262C 492.817,261.502 496.15,261.335 499.5,261.5 Z"/></g>
<g><path style="opacity:1" fill="#fcc469" d="M 1041.5,251.5 C 1037.9,255.427 1037.57,259.761 1040.5,264.5C 1044.66,268.42 1048.66,268.42 1052.5,264.5C 1054.76,265.219 1057.1,265.552 1059.5,265.5C 1060.11,266.391 1060.44,267.391 1060.5,268.5C 1059.78,276.499 1058.78,284.499 1057.5,292.5C 1044.57,297.437 1032.9,304.437 1022.5,313.5C 1021.83,313.5 1021.5,313.833 1021.5,314.5C 1020.11,315.614 1018.61,316.614 1017,317.5C 1016.58,316.244 1015.75,315.577 1014.5,315.5C 1022.6,292.115 1029.93,268.449 1036.5,244.5C 1037.73,244.279 1038.73,243.612 1039.5,242.5C 1040.68,245.391 1041.34,248.391 1041.5,251.5 Z"/></g>
<g><path style="opacity:1" fill="#1e2046" d="M 496.5,263.5 C 500.09,263.544 502.59,265.211 504,268.5C 504.678,272.221 504.511,275.888 503.5,279.5C 500.89,281.637 497.89,282.97 494.5,283.5C 491.898,283.533 489.898,282.533 488.5,280.5C 488.173,275.456 488.506,270.456 489.5,265.5C 491.863,264.83 494.196,264.163 496.5,263.5 Z"/></g>
<g><path style="opacity:1" fill="#241f45" d="M 177.5,266.5 C 176.89,267.391 176.557,268.391 176.5,269.5C 173.482,269.665 170.482,269.498 167.5,269C 166.707,267.915 166.04,266.748 165.5,265.5C 169.522,264.764 173.522,265.097 177.5,266.5 Z"/></g>
<g><path style="opacity:1" fill="#201e45" d="M 1060.5,268.5 C 1060.44,267.391 1060.11,266.391 1059.5,265.5C 1062.65,264.767 1065.81,263.767 1069,262.5C 1069.07,268.597 1066.24,270.597 1060.5,268.5 Z"/></g>
<g><path style="opacity:0.6" fill="#5c7d5f" d="M 447.5,262.5 C 447.279,265.279 447.612,267.946 448.5,270.5C 448.118,273.038 449.451,274.871 452.5,276C 452,276.167 451.5,276.333 451,276.5C 448.304,274.626 445.804,272.626 443.5,270.5C 443.5,267.833 443.5,265.167 443.5,262.5C 444.885,261.426 446.051,260.093 447,258.5C 446.669,260.019 446.836,261.352 447.5,262.5 Z"/></g>
<g><path style="opacity:1" fill="#241f43" d="M 458.5,273.5 C 458.167,273.5 457.833,273.5 457.5,273.5C 458.341,271.621 458.675,269.621 458.5,267.5C 463.782,266.856 469.116,267.189 474.5,268.5C 470.989,272.25 466.656,273.75 461.5,273C 460.281,271.205 459.281,271.372 458.5,273.5 Z"/></g>
<g><path style="opacity:1" fill="#a94745" d="M 496.5,263.5 C 494.196,264.163 491.863,264.83 489.5,265.5C 488.506,270.456 488.173,275.456 488.5,280.5C 486.926,280.063 485.759,279.063 485,277.5C 482.771,267.258 486.604,262.591 496.5,263.5 Z"/></g>
<g><path style="opacity:1" fill="#1b064c" d="M 764.5,261.5 C 766.821,261.658 768.654,262.658 770,264.5C 771.237,268.06 771.737,271.727 771.5,275.5C 770.172,279.254 767.506,280.421 763.5,279C 759.002,273.849 758.502,268.349 762,262.5C 762.671,261.748 763.504,261.414 764.5,261.5 Z"/></g>
<g><path style="opacity:0.314" fill="#7c6756" d="M 443.5,270.5 C 445.804,272.626 448.304,274.626 451,276.5C 451.5,276.333 452,276.167 452.5,276C 449.451,274.871 448.118,273.038 448.5,270.5C 450.902,273.545 453.902,274.545 457.5,273.5C 457.833,273.5 458.167,273.5 458.5,273.5C 458.5,274.833 458.5,276.167 458.5,277.5C 456.379,277.325 454.379,277.659 452.5,278.5C 447.605,277.897 444.605,275.23 443.5,270.5 Z"/></g>
<g><path style="opacity:1" fill="#1c1d42" d="M 800.5,269.5 C 798.78,272.889 798.113,276.556 798.5,280.5C 797.883,280.389 797.383,280.056 797,279.5C 794.108,282.082 791.275,281.916 788.5,279C 785.732,276.131 783.732,272.798 782.5,269C 788.551,268.254 794.551,268.421 800.5,269.5 Z"/></g>
<g><path style="opacity:0.697" fill="#090234" d="M 738.5,246.5 C 739.404,246.535 740.07,247.035 740.5,248C 730.27,279.356 720.437,310.856 711,342.5C 709.333,345.833 707.667,349.167 706,352.5C 705.329,351.748 704.496,351.414 703.5,351.5C 714.059,325.919 722.559,299.585 729,272.5C 732.485,263.852 735.652,255.186 738.5,246.5 Z"/></g>
<g><path style="opacity:1" fill="#fba550" d="M 488.5,285.5 C 496.438,287.368 504.105,290.035 511.5,293.5C 499.88,292.485 493.547,297.818 492.5,309.5C 492.891,312.751 494.058,315.751 496,318.5C 501.985,322.656 507.485,327.323 512.5,332.5C 488.996,372.85 464.996,412.85 440.5,452.5C 436.833,452.5 433.167,452.5 429.5,452.5C 426.713,451.523 423.713,451.19 420.5,451.5C 421.016,448.101 421.85,444.768 423,441.5C 428.369,428.424 434.035,415.424 440,402.5C 440.667,401.5 440.667,400.5 440,399.5C 439.623,400.942 438.79,401.942 437.5,402.5C 437.586,400.323 438.253,398.323 439.5,396.5C 439.058,395.261 438.391,394.261 437.5,393.5C 436.663,377.484 435.83,361.484 435,345.5C 440.593,327.714 447.926,310.714 457,294.5C 457.779,300.958 461.279,303.458 467.5,302C 476.025,298.408 483.025,292.908 488.5,285.5 Z"/></g>
<g><path style="opacity:1" fill="#46a1b8" d="M 1106.5,294.5 C 1113.1,295.1 1118.6,298.1 1123,303.5C 1138.62,321.391 1153.28,340.058 1167,359.5C 1167.68,360.784 1167.52,361.951 1166.5,363C 1163.02,364.103 1159.69,365.269 1156.5,366.5C 1151.69,366.197 1147.03,367.197 1142.5,369.5C 1129.96,365.408 1117.62,360.408 1105.5,354.5C 1104.78,351.927 1103.78,349.427 1102.5,347C 1104.17,346.667 1105.83,346.333 1107.5,346C 1106.91,345.536 1106.24,345.369 1105.5,345.5C 1109.34,344.245 1113.01,342.412 1116.5,340C 1121.83,333.333 1127.83,327.333 1134.5,322C 1133.5,321.333 1132.5,321.333 1131.5,322C 1125.17,328.333 1118.83,334.667 1112.5,341C 1107.62,343.736 1102.62,344.07 1097.5,342C 1093.71,337.594 1090.54,332.761 1088,327.5C 1080.63,317.644 1071.13,314.811 1059.5,319C 1052.96,322.216 1046.96,326.216 1041.5,331C 1036.97,333.41 1033.14,332.577 1030,328.5C 1026.43,324.036 1023.93,319.036 1022.5,313.5C 1032.9,304.437 1044.57,297.437 1057.5,292.5C 1058.21,294.746 1058.71,297.08 1059,299.5C 1060.47,301.007 1062.31,301.674 1064.5,301.5C 1073.24,300.463 1080.57,296.797 1086.5,290.5C 1087.26,290.077 1088.1,289.743 1089,289.5C 1094.21,291.402 1099.37,293.402 1104.5,295.5C 1105.18,295.137 1105.85,294.804 1106.5,294.5 Z"/></g>
<g><path style="opacity:1" fill="#fd6069" d="M 767.5,290.5 C 771.025,294.183 775.025,297.35 779.5,300C 789.828,305.748 795.161,302.915 795.5,291.5C 797.167,291.5 798.833,291.5 800.5,291.5C 805.606,293.093 809.773,296.093 813,300.5C 818.64,309.716 822.14,319.716 823.5,330.5C 822.042,328.145 820.708,328.478 819.5,331.5C 815.749,333.185 814.749,335.851 816.5,339.5C 817.439,355.472 817.772,371.472 817.5,387.5C 814.626,388.063 811.96,389.063 809.5,390.5C 808.368,389.646 807.035,389.646 805.5,390.5C 803.139,390.674 800.806,391.007 798.5,391.5C 783.391,376.889 769.891,360.889 758,343.5C 756.907,346.309 755.74,348.976 754.5,351.5C 754.719,350.325 754.386,349.325 753.5,348.5C 747.965,345.233 742.298,342.233 736.5,339.5C 732.813,337.467 729.147,335.467 725.5,333.5C 728.488,321.025 734.488,310.192 743.5,301C 751.375,297.23 759.375,293.73 767.5,290.5 Z"/></g>
<g><path style="opacity:1" fill="#a94746" d="M 511.5,293.5 C 516.928,295.713 522.261,298.213 527.5,301C 533.417,306.758 539.75,311.924 546.5,316.5C 547.401,318.727 549.067,319.727 551.5,319.5C 553.587,320.585 554.92,322.251 555.5,324.5C 554.102,322.891 552.435,322.058 550.5,322C 558.36,329.194 565.86,336.694 573,344.5C 577.157,349.288 578.157,354.621 576,360.5C 572.833,365.5 569.667,370.5 566.5,375.5C 567.233,376.087 568.233,376.087 569.5,375.5C 568.058,376.82 567.392,378.486 567.5,380.5C 566.194,380.879 564.861,381.212 563.5,381.5C 556.142,391.185 548.809,400.852 541.5,410.5C 540.662,410.842 540.328,411.508 540.5,412.5C 538.86,415.149 537.193,417.816 535.5,420.5C 535.279,423.097 534.779,423.097 534,420.5C 532.679,431.46 531.845,442.46 531.5,453.5C 529.901,454.562 528.234,454.562 526.5,453.5C 526.666,449.486 526.499,445.486 526,441.5C 525.105,445.21 524.105,448.877 523,452.5C 522.617,451.944 522.117,451.611 521.5,451.5C 519.952,442.622 519.118,433.622 519,424.5C 517.369,428.121 515.035,431.121 512,433.5C 511.403,425.211 512.736,417.211 516,409.5C 519.138,406.208 521.638,402.542 523.5,398.5C 530.966,385.575 537.966,372.242 544.5,358.5C 537.463,352.129 530.129,346.129 522.5,340.5C 519.48,337.484 516.146,334.817 512.5,332.5C 507.485,327.323 501.985,322.656 496,318.5C 494.058,315.751 492.891,312.751 492.5,309.5C 493.547,297.818 499.88,292.485 511.5,293.5 Z"/></g>
<g><path style="opacity:1" fill="#a84644" d="M 499.5,261.5 C 496.15,261.335 492.817,261.502 489.5,262C 480.503,268.813 480.169,275.98 488.5,283.5C 488.5,284.167 488.5,284.833 488.5,285.5C 483.025,292.908 476.025,298.408 467.5,302C 461.279,303.458 457.779,300.958 457,294.5C 447.926,310.714 440.593,327.714 435,345.5C 435.83,361.484 436.663,377.484 437.5,393.5C 436.569,397.293 435.235,400.959 433.5,404.5C 428.663,403.244 423.997,401.077 419.5,398C 404.161,383.806 390.328,368.306 378,351.5C 377.517,352.448 377.351,353.448 377.5,354.5C 376.512,353.205 375.512,351.872 374.5,350.5C 376.028,350.483 376.528,349.816 376,348.5C 372.833,344.667 369.667,340.833 366.5,337C 355.466,331.8 344.133,327.8 332.5,325C 335.648,326.424 338.648,327.924 341.5,329.5C 338.06,328.909 334.727,327.909 331.5,326.5C 330.758,324.892 330.591,323.225 331,321.5C 325.985,319.066 324.985,315.399 328,310.5C 330.069,309.736 332.236,309.236 334.5,309C 330.063,307.104 329.563,304.604 333,301.5C 341.848,303.386 350.348,306.386 358.5,310.5C 359.764,306.82 359.764,303.153 358.5,299.5C 359.083,297.998 359.916,296.665 361,295.5C 366.075,301.313 370.408,307.646 374,314.5C 388.667,329.833 403.333,345.167 418,360.5C 422.274,340.344 428.941,321.011 438,302.5C 441.5,300.333 444.333,297.5 446.5,294C 449.375,292.698 452.375,291.865 455.5,291.5C 456.162,287.534 456.495,283.534 456.5,279.5C 454.901,279.768 453.568,279.434 452.5,278.5C 454.379,277.659 456.379,277.325 458.5,277.5C 458.5,276.167 458.5,274.833 458.5,273.5C 459.281,271.372 460.281,271.205 461.5,273C 466.656,273.75 470.989,272.25 474.5,268.5C 469.116,267.189 463.782,266.856 458.5,267.5C 454.501,265.994 451.501,263.327 449.5,259.5C 448.824,260.602 448.158,261.602 447.5,262.5C 446.836,261.352 446.669,260.019 447,258.5C 446.051,260.093 444.885,261.426 443.5,262.5C 443.634,259.232 445.134,256.898 448,255.5C 449.726,248.281 451.226,240.947 452.5,233.5C 453.397,234.598 454.23,234.598 455,233.5C 455.606,230.452 457.106,227.952 459.5,226C 464.193,225.29 468.36,223.457 472,220.5C 474.944,231.222 480.111,240.722 487.5,249C 491.893,249.017 496.06,249.85 500,251.5C 502.009,254.95 501.842,258.283 499.5,261.5 Z"/></g>
<g><path style="opacity:0.91" fill="#f4ebeb" d="M 455.5,248.5 C 458.09,249.128 460.423,250.295 462.5,252C 458.03,254.757 455.697,253.59 455.5,248.5 Z"/></g>
<g><path style="opacity:1" fill="#3e2745" d="M 456.5,231.5 C 458.75,231.181 460.75,231.681 462.5,233C 461.5,233.167 460.5,233.333 459.5,233.5C 457.97,233.36 456.97,232.693 456.5,231.5 Z"/></g>
<g><path style="opacity:1" fill="#ebf4f7" d="M 1022.5,313.5 C 1023.93,319.036 1026.43,324.036 1030,328.5C 1033.14,332.577 1036.97,333.41 1041.5,331C 1046.96,326.216 1052.96,322.216 1059.5,319C 1071.13,314.811 1080.63,317.644 1088,327.5C 1090.54,332.761 1093.71,337.594 1097.5,342C 1102.62,344.07 1107.62,343.736 1112.5,341C 1118.83,334.667 1125.17,328.333 1131.5,322C 1132.5,321.333 1133.5,321.333 1134.5,322C 1127.83,327.333 1121.83,333.333 1116.5,340C 1113.01,342.412 1109.34,344.245 1105.5,345.5C 1097.22,344.893 1091.89,340.559 1089.5,332.5C 1082.51,319.67 1072.17,315.836 1058.5,321C 1052.5,325 1046.5,329 1040.5,333C 1033.72,334.361 1028.89,331.861 1026,325.5C 1023.93,322.039 1022.43,318.373 1021.5,314.5C 1021.5,313.833 1021.83,313.5 1022.5,313.5 Z"/></g>
<g><path style="opacity:1" fill="#fcc268" d="M 812.5,391.5 C 811.209,391.737 810.209,391.404 809.5,390.5C 811.96,389.063 814.626,388.063 817.5,387.5C 817.772,371.472 817.439,355.472 816.5,339.5C 817.871,337.064 818.871,334.397 819.5,331.5C 820.708,328.478 822.042,328.145 823.5,330.5C 825.498,336.136 827.498,341.803 829.5,347.5C 841.487,338.341 852.987,328.674 864,318.5C 865.092,315.956 865.759,313.289 866,310.5C 868.385,303.864 870.719,303.864 873,310.5C 877.426,308.038 881.593,305.204 885.5,302C 890.596,300.42 893.763,302.254 895,307.5C 894.852,310.126 895.019,312.626 895.5,315C 895.333,315.833 895.167,316.667 895,317.5C 889.919,320.968 885.252,324.968 881,329.5C 871.786,343.731 862.119,357.731 852,371.5C 848,375.5 844,379.5 840,383.5C 838.833,385.333 837.667,387.167 836.5,389C 832.107,392.446 827.273,394.946 822,396.5C 818.927,394.746 815.761,393.08 812.5,391.5 Z"/></g>
<g><path style="opacity:1" fill="#47a2b8" d="M 1021.5,314.5 C 1022.43,318.373 1023.93,322.039 1026,325.5C 1028.89,331.861 1033.72,334.361 1040.5,333C 1046.5,329 1052.5,325 1058.5,321C 1072.17,315.836 1082.51,319.67 1089.5,332.5C 1080.12,342.916 1071.45,353.916 1063.5,365.5C 1058.62,359.79 1052.46,356.457 1045,355.5C 1040.42,356.372 1036.26,358.205 1032.5,361C 1030.39,362.264 1029.39,364.097 1029.5,366.5C 1025.85,359.865 1022.18,353.198 1018.5,346.5C 1016.81,342.11 1014.81,337.777 1012.5,333.5C 1008.72,331.273 1007.05,327.94 1007.5,323.5C 1010.54,321.457 1012.88,318.79 1014.5,315.5C 1015.75,315.577 1016.58,316.244 1017,317.5C 1018.61,316.614 1020.11,315.614 1021.5,314.5 Z"/></g>
<g><path style="opacity:0.378" fill="#992724" d="M 374.5,350.5 C 371.184,346.043 367.518,341.876 363.5,338C 356.03,335.428 348.697,332.595 341.5,329.5C 338.648,327.924 335.648,326.424 332.5,325C 344.133,327.8 355.466,331.8 366.5,337C 369.667,340.833 372.833,344.667 376,348.5C 376.528,349.816 376.028,350.483 374.5,350.5 Z"/></g>
<g><path style="opacity:1" fill="#211d44" d="M 819.5,331.5 C 818.871,334.397 817.871,337.064 816.5,339.5C 814.749,335.851 815.749,333.185 819.5,331.5 Z"/></g>
<g><path style="opacity:1" fill="#fd9c45" d="M 512.5,332.5 C 516.146,334.817 519.48,337.484 522.5,340.5C 521.79,356.435 520.123,372.268 517.5,388C 519.374,391.583 521.374,395.083 523.5,398.5C 521.638,402.542 519.138,406.208 516,409.5C 512.736,417.211 511.403,425.211 512,433.5C 515.035,431.121 517.369,428.121 519,424.5C 519.118,433.622 519.952,442.622 521.5,451.5C 494.672,452.498 467.672,452.831 440.5,452.5C 464.996,412.85 488.996,372.85 512.5,332.5 Z"/></g>
<g><path style="opacity:1" fill="#328ba6" d="M 1089.5,332.5 C 1091.89,340.559 1097.22,344.893 1105.5,345.5C 1106.24,345.369 1106.91,345.536 1107.5,346C 1105.83,346.333 1104.17,346.667 1102.5,347C 1103.78,349.427 1104.78,351.927 1105.5,354.5C 1100.94,354.55 1097.44,356.55 1095,360.5C 1092.41,364.674 1090.08,369.007 1088,373.5C 1084.45,378.451 1079.95,379.618 1074.5,377C 1070.68,373.351 1067.02,369.517 1063.5,365.5C 1071.45,353.916 1080.12,342.916 1089.5,332.5 Z"/></g>
<g><path style="opacity:1" fill="#fbc369" d="M 725.5,333.5 C 729.147,335.467 732.813,337.467 736.5,339.5C 741.003,347.844 746.003,355.844 751.5,363.5C 749.94,372.529 748.273,381.529 746.5,390.5C 744.865,395.344 743.865,400.344 743.5,405.5C 742.662,405.842 742.328,406.508 742.5,407.5C 740.619,416.118 738.952,424.785 737.5,433.5C 735.916,439.752 734.583,446.086 733.5,452.5C 731.516,459.233 731.183,465.9 732.5,472.5C 732.666,476.846 732.499,481.179 732,485.5C 731.311,486.357 730.478,487.023 729.5,487.5C 728.031,484.702 727.198,481.702 727,478.5C 725.258,483.23 723.425,487.897 721.5,492.5C 721.167,492.5 720.833,492.5 720.5,492.5C 716.996,491.188 713.83,489.188 711,486.5C 709.141,487.579 707.641,488.912 706.5,490.5C 704.549,490.773 703.049,490.107 702,488.5C 701.982,486.203 702.149,483.869 702.5,481.5C 703.833,481.5 704.5,480.833 704.5,479.5C 706.104,474.288 708.271,469.288 711,464.5C 713.161,449.562 714.661,434.562 715.5,419.5C 714.209,419.737 713.209,419.404 712.5,418.5C 712.5,418.167 712.5,417.833 712.5,417.5C 713.931,417.119 714.764,416.119 715,414.5C 717.771,399.531 718.938,384.531 718.5,369.5C 719.5,369.5 720.5,369.5 721.5,369.5C 721.5,368.167 721.5,366.833 721.5,365.5C 721.916,354.657 723.249,343.99 725.5,333.5 Z"/></g>
<g><path style="opacity:1" fill="#1f2046" d="M 522.5,340.5 C 530.129,346.129 537.463,352.129 544.5,358.5C 537.966,372.242 530.966,385.575 523.5,398.5C 521.374,395.083 519.374,391.583 517.5,388C 520.123,372.268 521.79,356.435 522.5,340.5 Z"/></g>
<g><path style="opacity:1" fill="#fc434c" d="M 798.5,391.5 C 791.201,392.35 783.868,392.683 776.5,392.5C 774.167,392.5 771.833,392.5 769.5,392.5C 761.79,392.273 754.123,391.606 746.5,390.5C 748.273,381.529 749.94,372.529 751.5,363.5C 752.918,359.713 753.918,355.713 754.5,351.5C 755.74,348.976 756.907,346.309 758,343.5C 769.891,360.889 783.391,376.889 798.5,391.5 Z"/></g>
<g><path style="opacity:1" fill="#1e1f45" d="M 736.5,339.5 C 742.298,342.233 747.965,345.233 753.5,348.5C 754.386,349.325 754.719,350.325 754.5,351.5C 753.918,355.713 752.918,359.713 751.5,363.5C 746.003,355.844 741.003,347.844 736.5,339.5 Z"/></g>
<g><path style="opacity:0.971" fill="#e3f0f3" d="M 1105.5,354.5 C 1117.62,360.408 1129.96,365.408 1142.5,369.5C 1141.83,369.5 1141.17,369.5 1140.5,369.5C 1136.14,368.493 1131.81,367.327 1127.5,366C 1120.28,362.225 1112.95,358.725 1105.5,355.5C 1101.61,356.36 1098.45,358.36 1096,361.5C 1093.53,368.275 1089.7,374.108 1084.5,379C 1081.13,380.879 1077.8,380.879 1074.5,379C 1069.97,375.636 1065.97,371.803 1062.5,367.5C 1051.73,354.666 1040.73,354.333 1029.5,366.5C 1029.39,364.097 1030.39,362.264 1032.5,361C 1036.26,358.205 1040.42,356.372 1045,355.5C 1052.46,356.457 1058.62,359.79 1063.5,365.5C 1067.02,369.517 1070.68,373.351 1074.5,377C 1079.95,379.618 1084.45,378.451 1088,373.5C 1090.08,369.007 1092.41,364.674 1095,360.5C 1097.44,356.55 1100.94,354.55 1105.5,354.5 Z"/></g>
<g><path style="opacity:1" fill="#45a0b8" d="M 1062.5,367.5 C 1056.53,374.31 1050.7,381.31 1045,388.5C 1044.21,389.745 1043.71,391.078 1043.5,392.5C 1041,393.779 1038.5,393.779 1036,392.5C 1035.18,393.823 1034.02,394.489 1032.5,394.5C 1034.82,387.669 1035.15,380.669 1033.5,373.5C 1031.38,373.532 1030.05,372.532 1029.5,370.5C 1028.91,369.849 1028.24,369.182 1027.5,368.5C 1028.24,367.818 1028.91,367.151 1029.5,366.5C 1040.73,354.333 1051.73,354.666 1062.5,367.5 Z"/></g>
<g><path style="opacity:0.278" fill="#160b32" d="M 721.5,365.5 C 721.5,366.833 721.5,368.167 721.5,369.5C 720.5,369.5 719.5,369.5 718.5,369.5C 711.801,367.32 704.968,365.32 698,363.5C 696.97,363.164 696.47,362.497 696.5,361.5C 699.764,360.073 702.264,357.739 704,354.5C 704.065,357.198 702.898,359.364 700.5,361C 706.833,363.167 713.167,365.333 719.5,367.5C 720.182,366.757 720.849,366.091 721.5,365.5 Z"/></g>
<g><path style="opacity:1" fill="#5bc19a" d="M 288.5,278.5 C 288.281,279.675 288.614,280.675 289.5,281.5C 297.584,285.542 305.584,289.542 313.5,293.5C 305.347,322.956 296.014,351.956 285.5,380.5C 269.348,384.729 253.348,383.896 237.5,378C 230.172,375.254 223.006,372.087 216,368.5C 219.711,412.248 223.544,455.915 227.5,499.5C 223.158,499.739 218.824,500.073 214.5,500.5C 210.566,499.64 206.566,499.307 202.5,499.5C 199.5,499.5 196.5,499.5 193.5,499.5C 190.167,499.5 186.833,499.5 183.5,499.5C 176.571,490.067 170.238,480.233 164.5,470C 165.416,469.722 166.082,469.222 166.5,468.5C 161.78,463.629 156.446,459.462 150.5,456C 155.624,458.043 160.957,459.876 166.5,461.5C 168.815,461.201 168.815,460.368 166.5,459C 157.624,454.148 148.624,449.482 139.5,445C 145.574,443.608 151.574,441.942 157.5,440C 152.749,438.717 148.082,437.55 143.5,436.5C 143.938,436.565 144.272,436.399 144.5,436C 132.745,413.04 121.578,389.873 111,366.5C 104.919,372.581 98.9189,378.581 93,384.5C 92.433,387.168 91.933,389.834 91.5,392.5C 90.7321,391.737 90.2321,390.737 90,389.5C 85.8161,392.621 86.3161,395.288 91.5,397.5C 92.6138,398.885 93.6138,400.385 94.5,402C 106.5,410.667 118.5,419.333 130.5,428C 128.561,429.432 127.228,431.265 126.5,433.5C 123.041,436.415 120.041,439.748 117.5,443.5C 112.747,447.917 108.747,452.917 105.5,458.5C 102.495,458.747 99.995,457.747 98,455.5C 97.7679,456.737 97.2679,457.737 96.5,458.5C 95.8825,456.771 94.8825,455.271 93.5,454C 66.1497,436.66 38.8163,419.327 11.5,402C 10.5939,400.301 10.2606,398.467 10.5,396.5C 33.1857,395.516 55.8524,393.683 78.5,391C 56.1605,392.244 33.8271,393.411 11.5,394.5C 11.6079,392.217 12.4412,390.217 14,388.5C 37.523,355.653 65.023,326.486 96.5,301C 103.614,296.064 111.281,292.064 119.5,289C 124.424,285.218 129.424,281.718 134.5,278.5C 136.199,278.34 137.866,278.506 139.5,279C 145.318,285.154 151.985,290.154 159.5,294C 169.738,296.216 176.738,292.716 180.5,283.5C 185.33,283.387 189.997,284.22 194.5,286C 210.147,293.212 225.147,301.545 239.5,311C 245.951,315.868 252.285,320.702 258.5,325.5C 259.442,325.392 260.275,325.059 261,324.5C 266.994,308.51 272.994,292.51 279,276.5C 279.561,275.978 280.228,275.645 281,275.5C 283.677,276.222 286.177,277.222 288.5,278.5 Z M 91.5,392.5 C 91.5,394.167 91.5,395.833 91.5,397.5C 86.3161,395.288 85.8161,392.621 90,389.5C 90.2321,390.737 90.7321,391.737 91.5,392.5 Z"/></g>
<g><path style="opacity:1" fill="#e8f7f0" d="M 255.5,326.5 C 256.458,326.953 257.292,327.619 258,328.5C 264.969,343.447 272.303,358.114 280,372.5C 281.028,374.844 281.694,377.177 282,379.5C 272.628,362.09 263.795,344.423 255.5,326.5 Z"/></g>
<g><path style="opacity:1" fill="#e6f5ef" d="M 267.5,312.5 C 275.47,324.66 283.304,336.993 291,349.5C 292.187,351.044 292.52,352.711 292,354.5C 283.136,340.827 274.969,326.827 267.5,312.5 Z"/></g>
<g><path style="opacity:1" fill="#e4f5ed" d="M 125.5,287.5 C 126.189,286.226 127.023,286.226 128,287.5C 137.696,302.219 148.363,316.219 160,329.5C 170.991,339.345 182.824,340.178 195.5,332C 205.69,323.808 214.523,314.308 222,303.5C 214.644,318.856 203.144,330.356 187.5,338C 174.462,342.099 163.962,338.599 156,327.5C 145.203,314.551 135.036,301.217 125.5,287.5 Z"/></g>
<g><path style="opacity:0.638" fill="#9f2c28" d="M 433.5,404.5 C 432.551,405.152 431.385,405.486 430,405.5C 427.337,405.174 424.837,404.341 422.5,403C 416.877,399.045 411.543,394.712 406.5,390C 396.621,378.293 386.954,366.459 377.5,354.5C 377.351,353.448 377.517,352.448 378,351.5C 390.328,368.306 404.161,383.806 419.5,398C 423.997,401.077 428.663,403.244 433.5,404.5 Z"/></g>
<g><path style="opacity:0.561" fill="#9d2c2b" d="M 555.5,324.5 C 561.542,329.557 567.375,334.891 573,340.5C 579.365,346.731 581.032,354.064 578,362.5C 574.659,366.52 571.825,370.853 569.5,375.5C 568.233,376.087 567.233,376.087 566.5,375.5C 569.667,370.5 572.833,365.5 576,360.5C 578.157,354.621 577.157,349.288 573,344.5C 565.86,336.694 558.36,329.194 550.5,322C 552.435,322.058 554.102,322.891 555.5,324.5 Z"/></g>
<g><path style="opacity:0.996" fill="#1f2047" d="M 1018.5,346.5 C 1022.18,353.198 1025.85,359.865 1029.5,366.5C 1028.91,367.151 1028.24,367.818 1027.5,368.5C 1028.24,369.182 1028.91,369.849 1029.5,370.5C 1026.3,370.405 1023.3,371.072 1020.5,372.5C 1018.86,363.934 1018.19,355.267 1018.5,346.5 Z"/></g>
<g><path style="opacity:1" fill="#282043" d="M 1156.5,366.5 C 1158.27,368.938 1159.6,371.605 1160.5,374.5C 1153.35,373.341 1146.35,372.008 1139.5,370.5C 1140.17,370.5 1140.5,370.167 1140.5,369.5C 1141.17,369.5 1141.83,369.5 1142.5,369.5C 1147.03,367.197 1151.69,366.197 1156.5,366.5 Z"/></g>
<g><path style="opacity:1" fill="#e9f7f0" d="M 37.5,360.5 C 49.941,366.889 61.941,374.055 73.5,382C 71.4021,381.968 69.4021,381.301 67.5,380C 58.1655,373.664 48.4988,367.831 38.5,362.5C 37.7025,362.043 37.3691,361.376 37.5,360.5 Z"/></g>
<g><path style="opacity:1" fill="#3ca97c" d="M 143.5,436.5 C 138.821,436.666 134.155,436.499 129.5,436C 128.429,435.148 127.429,434.315 126.5,433.5C 127.228,431.265 128.561,429.432 130.5,428C 118.5,419.333 106.5,410.667 94.5,402C 93.6138,400.385 92.6138,398.885 91.5,397.5C 91.5,395.833 91.5,394.167 91.5,392.5C 91.933,389.834 92.433,387.168 93,384.5C 98.9189,378.581 104.919,372.581 111,366.5C 121.578,389.873 132.745,413.04 144.5,436C 144.272,436.399 143.938,436.565 143.5,436.5 Z"/></g>
<g><path style="opacity:1" fill="#fb917c" d="M 1139.5,370.5 C 1146.35,372.008 1153.35,373.341 1160.5,374.5C 1164.53,382.123 1164.37,389.79 1160,397.5C 1146.6,405.565 1133.43,413.898 1120.5,422.5C 1119.58,421.697 1118.58,421.53 1117.5,422C 1090.29,439.268 1062.29,454.934 1033.5,469C 1037.52,465.347 1037.19,464.847 1032.5,467.5C 1032.17,467.167 1031.83,466.833 1031.5,466.5C 1033.27,464.443 1035.27,462.61 1037.5,461C 1025.94,464.307 1025.6,462.64 1036.5,456C 1033.06,457.532 1029.39,458.199 1025.5,458C 1031.72,453.732 1037.72,449.232 1043.5,444.5C 1039.55,443.509 1035.55,443.176 1031.5,443.5C 1031.5,442.5 1031.5,441.5 1031.5,440.5C 1038.75,438.697 1046.08,437.197 1053.5,436C 1063.74,429.057 1073.74,421.89 1083.5,414.5C 1089.93,410.582 1096.27,406.415 1102.5,402C 1104.77,400.574 1106.43,398.74 1107.5,396.5C 1110.98,393.496 1114.81,390.829 1119,388.5C 1121.75,384.746 1122.92,380.746 1122.5,376.5C 1127.87,373.709 1133.54,371.709 1139.5,370.5 Z"/></g>
<g><path style="opacity:1" fill="#348ea8" d="M 1140.5,369.5 C 1140.5,370.167 1140.17,370.5 1139.5,370.5C 1133.54,371.709 1127.87,373.709 1122.5,376.5C 1120.98,376.489 1119.82,375.823 1119,374.5C 1116.38,370.217 1113.38,366.217 1110,362.5C 1106.27,372.109 1104.44,382.109 1104.5,392.5C 1084.2,391.853 1063.86,391.853 1043.5,392.5C 1043.71,391.078 1044.21,389.745 1045,388.5C 1050.7,381.31 1056.53,374.31 1062.5,367.5C 1065.97,371.803 1069.97,375.636 1074.5,379C 1077.8,380.879 1081.13,380.879 1084.5,379C 1089.7,374.108 1093.53,368.275 1096,361.5C 1098.45,358.36 1101.61,356.36 1105.5,355.5C 1112.95,358.725 1120.28,362.225 1127.5,366C 1131.81,367.327 1136.14,368.493 1140.5,369.5 Z"/></g>
<g><path style="opacity:1" fill="#ecf8f2" d="M 113.5,294.5 C 118.638,324.916 122.971,355.583 126.5,386.5C 132.178,386.247 137.511,384.747 142.5,382C 152.156,374.837 162.156,368.17 172.5,362C 184.942,357.926 195.109,361.092 203,371.5C 209.294,381.08 213.628,391.413 216,402.5C 212.41,391.988 207.744,381.988 202,372.5C 193.119,361.314 182.286,358.814 169.5,365C 161.222,370.278 153.222,375.945 145.5,382C 139.406,386.358 132.739,387.858 125.5,386.5C 121.033,355.894 117.033,325.228 113.5,294.5 Z"/></g>
<g><path style="opacity:1" fill="#e4f5ee" d="M 10.5,396.5 C 10.3284,395.508 10.6618,394.842 11.5,394.5C 33.8271,393.411 56.1605,392.244 78.5,391C 55.8524,393.683 33.1857,395.516 10.5,396.5 Z"/></g>
<g><path style="opacity:1" fill="#31839e" d="M 805.5,390.5 C 799.54,395.49 793.54,400.49 787.5,405.5C 783.606,401.392 779.939,397.059 776.5,392.5C 783.868,392.683 791.201,392.35 798.5,391.5C 800.806,391.007 803.139,390.674 805.5,390.5 Z"/></g>
<g><path style="opacity:1" fill="#1c1e43" d="M 567.5,380.5 C 568.042,386.673 568.709,392.839 569.5,399C 569.592,401.821 568.926,404.321 567.5,406.5C 566.778,406.082 566.278,405.416 566,404.5C 558.521,409.002 550.354,411.002 541.5,410.5C 548.809,400.852 556.142,391.185 563.5,381.5C 564.861,381.212 566.194,380.879 567.5,380.5 Z"/></g>
<g><path style="opacity:1" fill="#13183a" d="M 1104.5,392.5 C 1105.86,393.59 1106.86,394.924 1107.5,396.5C 1106.43,398.74 1104.77,400.574 1102.5,402C 1096.27,406.415 1089.93,410.582 1083.5,414.5C 1079.95,412.896 1076.29,411.562 1072.5,410.5C 1071.71,409.758 1071.05,408.925 1070.5,408C 1062.42,404.416 1054.75,400.082 1047.5,395C 1043.5,394.333 1039.5,394.333 1035.5,395C 1033.65,397.507 1031.32,399.341 1028.5,400.5C 1029.34,398.147 1030.67,396.147 1032.5,394.5C 1034.02,394.489 1035.18,393.823 1036,392.5C 1038.5,393.779 1041,393.779 1043.5,392.5C 1063.86,391.853 1084.2,391.853 1104.5,392.5 Z"/></g>
<g><path style="opacity:1" fill="#2d849e" d="M 746.5,390.5 C 754.123,391.606 761.79,392.273 769.5,392.5C 774.241,397.901 778.574,403.567 782.5,409.5C 776.167,414.833 769.833,420.167 763.5,425.5C 763.167,425.5 762.833,425.5 762.5,425.5C 755.714,419.258 749.38,412.591 743.5,405.5C 743.865,400.344 744.865,395.344 746.5,390.5 Z"/></g>
<g><path style="opacity:1" fill="#a1cedb" d="M 769.5,392.5 C 771.833,392.5 774.167,392.5 776.5,392.5C 779.939,397.059 783.606,401.392 787.5,405.5C 787.5,405.833 787.5,406.167 787.5,406.5C 785.596,406.738 784.262,407.738 783.5,409.5C 783.167,409.5 782.833,409.5 782.5,409.5C 778.574,403.567 774.241,397.901 769.5,392.5 Z"/></g>
<g><path style="opacity:0.618" fill="#06001a" d="M 567.5,406.5 C 565.727,407.892 563.727,409.059 561.5,410C 554.622,411.883 547.622,412.716 540.5,412.5C 540.328,411.508 540.662,410.842 541.5,410.5C 550.354,411.002 558.521,409.002 566,404.5C 566.278,405.416 566.778,406.082 567.5,406.5 Z"/></g>
<g><path style="opacity:1" fill="#46a2b9" d="M 782.5,409.5 C 782.833,409.5 783.167,409.5 783.5,409.5C 790.916,419.827 796.916,430.994 801.5,443C 786.927,441.212 774.26,435.379 763.5,425.5C 769.833,420.167 776.167,414.833 782.5,409.5 Z"/></g>
<g><path style="opacity:1" fill="#2f839e" d="M 742.5,407.5 C 748.479,414.146 754.812,420.479 761.5,426.5C 756.727,430.857 752.061,435.19 747.5,439.5C 744.411,437.075 741.078,435.075 737.5,433.5C 738.952,424.785 740.619,416.118 742.5,407.5 Z"/></g>
<g><path style="opacity:1" fill="#1e1f45" d="M 712.5,418.5 C 713.209,419.404 714.209,419.737 715.5,419.5C 714.661,434.562 713.161,449.562 711,464.5C 708.271,469.288 706.104,474.288 704.5,479.5C 697.176,475.739 690.343,471.072 684,465.5C 681.81,460.972 682.144,456.639 685,452.5C 691.919,441.661 699.086,430.994 706.5,420.5C 708.304,419.232 710.304,418.565 712.5,418.5 Z"/></g>
<g><path style="opacity:1" fill="#46a2b9" d="M 743.5,405.5 C 749.38,412.591 755.714,419.258 762.5,425.5C 762.511,427.017 763.177,428.184 764.5,429C 775.848,437.507 788.515,443.007 802.5,445.5C 810.421,474.157 806.254,500.824 790,525.5C 782.384,534.876 773.218,542.21 762.5,547.5C 746.731,531.29 733.397,513.29 722.5,493.5C 728.609,496.724 734.609,500.224 740.5,504C 749.123,506.304 756.289,504.137 762,497.5C 767.333,488.833 772.667,480.167 778,471.5C 779.007,466.889 778.34,462.555 776,458.5C 766.729,451.784 757.229,445.451 747.5,439.5C 752.061,435.19 756.727,430.857 761.5,426.5C 754.812,420.479 748.479,414.146 742.5,407.5C 742.328,406.508 742.662,405.842 743.5,405.5 Z"/></g>
<g><path style="opacity:1" fill="#1d1f45" d="M 1083.5,414.5 C 1073.74,421.89 1063.74,429.057 1053.5,436C 1046.08,437.197 1038.75,438.697 1031.5,440.5C 1031.5,441.5 1031.5,442.5 1031.5,443.5C 1035.55,443.176 1039.55,443.509 1043.5,444.5C 1037.72,449.232 1031.72,453.732 1025.5,458C 1029.39,458.199 1033.06,457.532 1036.5,456C 1025.6,462.64 1025.94,464.307 1037.5,461C 1035.27,462.61 1033.27,464.443 1031.5,466.5C 1031.83,466.833 1032.17,467.167 1032.5,467.5C 1037.19,464.847 1037.52,465.347 1033.5,469C 1062.29,454.934 1090.29,439.268 1117.5,422C 1118.58,421.53 1119.58,421.697 1120.5,422.5C 1125.66,433.128 1128.66,444.461 1129.5,456.5C 1128.51,454.934 1127.68,452.601 1127,449.5C 1135.54,501.77 1144.21,554.103 1153,606.5C 1153.19,604.292 1153.69,602.292 1154.5,600.5C 1159.59,632.86 1164.42,665.193 1169,697.5C 1170.86,708.621 1171.36,719.621 1170.5,730.5C 1162.68,730.075 1154.68,730.075 1146.5,730.5C 1145.43,729.566 1144.1,729.232 1142.5,729.5C 1134.44,701.386 1125.94,672.386 1117,642.5C 1116.72,643.416 1116.22,644.082 1115.5,644.5C 1106.09,610.494 1096.43,576.494 1086.5,542.5C 1087.75,542.577 1088.58,543.244 1089,544.5C 1084.98,525.411 1080.31,506.411 1075,487.5C 1071.26,482.812 1067.26,482.479 1063,486.5C 1063.04,565.833 1063.04,645.166 1063,724.5C 1063,727.687 1062.17,730.52 1060.5,733C 1061.45,733.483 1062.45,733.649 1063.5,733.5C 1063.5,734.167 1063.17,734.5 1062.5,734.5C 1057.12,734.324 1051.79,734.658 1046.5,735.5C 1042.5,735.5 1038.5,735.5 1034.5,735.5C 1026.17,669.717 1020,603.717 1016,537.5C 1014.92,507.121 1015.59,476.788 1018,446.5C 1019.8,431.618 1023.64,417.284 1029.5,403.5C 1028.8,403.213 1028.13,402.88 1027.5,402.5C 1027.33,401.508 1027.66,400.842 1028.5,400.5C 1031.32,399.341 1033.65,397.507 1035.5,395C 1039.5,394.333 1043.5,394.333 1047.5,395C 1054.75,400.082 1062.42,404.416 1070.5,408C 1071.05,408.925 1071.71,409.758 1072.5,410.5C 1076.29,411.562 1079.95,412.896 1083.5,414.5 Z"/></g>
<g><path style="opacity:1" fill="#fb937d" d="M 126.5,433.5 C 127.429,434.315 128.429,435.148 129.5,436C 134.155,436.499 138.821,436.666 143.5,436.5C 148.082,437.55 152.749,438.717 157.5,440C 151.574,441.942 145.574,443.608 139.5,445C 148.624,449.482 157.624,454.148 166.5,459C 168.815,460.368 168.815,461.201 166.5,461.5C 160.957,459.876 155.624,458.043 150.5,456C 156.446,459.462 161.78,463.629 166.5,468.5C 159.893,466.85 153.56,464.683 147.5,462C 153.033,464.934 158.033,468.6 162.5,473C 156.963,471.894 151.63,470.227 146.5,468C 150.314,470.647 153.647,473.813 156.5,477.5C 155.667,477.833 154.833,478.167 154,478.5C 140.589,474.7 127.755,469.7 115.5,463.5C 115.838,456.797 116.505,450.13 117.5,443.5C 120.041,439.748 123.041,436.415 126.5,433.5 Z"/></g>
<g><path style="opacity:0.663" fill="#fa9435" d="M 429.5,452.5 C 425.818,452.665 422.152,452.499 418.5,452C 419.24,450.215 419.907,448.382 420.5,446.5C 420.376,445.893 420.043,445.56 419.5,445.5C 424.739,430.767 430.739,416.433 437.5,402.5C 438.79,401.942 439.623,400.942 440,399.5C 440.667,400.5 440.667,401.5 440,402.5C 434.035,415.424 428.369,428.424 423,441.5C 421.85,444.768 421.016,448.101 420.5,451.5C 423.713,451.19 426.713,451.523 429.5,452.5 Z"/></g>
<g><path style="opacity:1" fill="#1e2046" d="M 737.5,433.5 C 741.078,435.075 744.411,437.075 747.5,439.5C 757.229,445.451 766.729,451.784 776,458.5C 778.34,462.555 779.007,466.889 778,471.5C 772.667,480.167 767.333,488.833 762,497.5C 756.289,504.137 749.123,506.304 740.5,504C 734.609,500.224 728.609,496.724 722.5,493.5C 722.5,492.833 722.167,492.5 721.5,492.5C 723.425,487.897 725.258,483.23 727,478.5C 727.198,481.702 728.031,484.702 729.5,487.5C 730.478,487.023 731.311,486.357 732,485.5C 732.499,481.179 732.666,476.846 732.5,472.5C 740.383,469.699 742.549,464.366 739,456.5C 737.568,454.561 735.735,453.228 733.5,452.5C 734.583,446.086 735.916,439.752 737.5,433.5 Z"/></g>
<g><path style="opacity:1" fill="#f58f38" d="M 535.5,420.5 C 538.678,430.194 542.178,439.861 546,449.5C 546.494,451.134 546.66,452.801 546.5,454.5C 542.833,454.5 539.167,454.5 535.5,454.5C 534.167,454.167 532.833,453.833 531.5,453.5C 531.845,442.46 532.679,431.46 534,420.5C 534.779,423.097 535.279,423.097 535.5,420.5 Z"/></g>
<g><path style="opacity:1" fill="#45a1b8" d="M 809.5,390.5 C 810.209,391.404 811.209,391.737 812.5,391.5C 820.327,411.426 825.494,432.092 828,453.5C 831.254,487.27 832.087,520.937 830.5,554.5C 818,558.194 807.5,564.861 799,574.5C 786.905,568.564 776.071,560.898 766.5,551.5C 793.89,536.747 808.723,513.747 811,482.5C 811.667,475.167 811.667,467.833 811,460.5C 809.637,455.916 808.803,451.249 808.5,446.5C 813.887,446.595 819.22,446.095 824.5,445C 818.584,444.81 812.751,444.31 807,443.5C 803.026,429.674 796.526,417.34 787.5,406.5C 787.5,406.167 787.5,405.833 787.5,405.5C 793.54,400.49 799.54,395.49 805.5,390.5C 807.035,389.646 808.368,389.646 809.5,390.5 Z"/></g>
<g><path style="opacity:1" fill="#ce8043" d="M 526.5,453.5 C 493.427,453.174 460.427,453.508 427.5,454.5C 418.171,456.851 415.504,453.851 419.5,445.5C 420.043,445.56 420.376,445.893 420.5,446.5C 419.907,448.382 419.24,450.215 418.5,452C 422.152,452.499 425.818,452.665 429.5,452.5C 433.167,452.5 436.833,452.5 440.5,452.5C 467.672,452.831 494.672,452.498 521.5,451.5C 522.117,451.611 522.617,451.944 523,452.5C 524.105,448.877 525.105,445.21 526,441.5C 526.499,445.486 526.666,449.486 526.5,453.5 Z"/></g>
<g><path style="opacity:0.094" fill="#12102a" d="M 712.5,417.5 C 712.5,417.833 712.5,418.167 712.5,418.5C 710.304,418.565 708.304,419.232 706.5,420.5C 699.086,430.994 691.919,441.661 685,452.5C 682.144,456.639 681.81,460.972 684,465.5C 690.343,471.072 697.176,475.739 704.5,479.5C 704.5,480.833 703.833,481.5 702.5,481.5C 696.755,476.936 690.588,472.936 684,469.5C 680.068,465.968 678.735,461.635 680,456.5C 686.907,444.587 694.24,432.921 702,421.5C 704.697,418.13 708.197,416.796 712.5,417.5 Z"/></g>
<g><path style="opacity:1" fill="#1d1f45" d="M 526.5,453.5 C 528.234,454.562 529.901,454.562 531.5,453.5C 532.833,453.833 534.167,454.167 535.5,454.5C 540.33,478.992 544.663,503.658 548.5,528.5C 547.366,530.966 547.199,533.633 548,536.5C 550.91,548.373 553.576,560.373 556,572.5C 556.671,573.252 557.504,573.586 558.5,573.5C 560.265,581.421 561.598,589.421 562.5,597.5C 561.105,595.946 560.439,596.279 560.5,598.5C 563.118,612.874 565.951,627.207 569,641.5C 569.198,639.618 569.698,637.952 570.5,636.5C 571.547,647.131 573.547,657.464 576.5,667.5C 575.175,668.953 574.342,668.619 574,666.5C 573.833,667.667 573.667,668.833 573.5,670C 577.795,695.339 581.795,720.672 585.5,746C 584.748,746.671 584.414,747.504 584.5,748.5C 575.858,749.299 567.191,749.632 558.5,749.5C 557.503,749.53 556.836,749.03 556.5,748C 553.917,739.42 551.25,730.92 548.5,722.5C 549.394,719.208 549.227,715.874 548,712.5C 538.869,684.955 530.536,657.288 523,629.5C 523.333,630.167 523.667,630.833 524,631.5C 526.106,629.185 526.772,626.518 526,623.5C 524.268,629.948 523.435,629.948 523.5,623.5C 521.876,623.64 520.71,622.973 520,621.5C 517.864,614.758 515.531,608.091 513,601.5C 513.284,603.679 513.117,605.679 512.5,607.5C 506.769,589.304 501.436,570.971 496.5,552.5C 497.558,553.6 498.392,554.934 499,556.5C 499.167,556 499.333,555.5 499.5,555C 495.324,539.432 491.158,523.932 487,508.5C 485.611,506.773 483.944,505.439 482,504.5C 480.5,505.5 479,506.5 477.5,507.5C 475.02,533.415 473.353,559.415 472.5,585.5C 469.834,638.461 468.501,691.461 468.5,744.5C 463.5,745.003 463.833,745.336 469.5,745.5C 468.22,746.931 466.553,747.598 464.5,747.5C 463.183,747.179 461.849,746.846 460.5,746.5C 452.218,747.768 443.885,748.435 435.5,748.5C 434.746,743.537 434.413,738.537 434.5,733.5C 435.657,738 436.657,742.667 437.5,747.5C 435.629,722.432 433.463,697.099 431,671.5C 424.778,599.513 424.111,527.513 429,455.5C 428.617,456.056 428.117,456.389 427.5,456.5C 427.5,455.833 427.5,455.167 427.5,454.5C 460.427,453.508 493.427,453.174 526.5,453.5 Z"/></g>
<g><path style="opacity:1" fill="#f9f8f6" d="M 733.5,452.5 C 735.735,453.228 737.568,454.561 739,456.5C 742.549,464.366 740.383,469.699 732.5,472.5C 731.183,465.9 731.516,459.233 733.5,452.5 Z"/></g>
<g><path style="opacity:1" fill="#3ba97b" d="M 105.5,458.5 C 108.27,461.219 111.604,462.885 115.5,463.5C 127.755,469.7 140.589,474.7 154,478.5C 154.833,478.167 155.667,477.833 156.5,477.5C 153.647,473.813 150.314,470.647 146.5,468C 151.63,470.227 156.963,471.894 162.5,473C 158.033,468.6 153.033,464.934 147.5,462C 153.56,464.683 159.893,466.85 166.5,468.5C 166.082,469.222 165.416,469.722 164.5,470C 170.238,480.233 176.571,490.067 183.5,499.5C 161.187,500.723 138.854,501.557 116.5,502C 114.509,502.374 112.842,503.207 111.5,504.5C 107.649,505.029 104.149,504.362 101,502.5C 98.2942,488.052 96.7942,473.385 96.5,458.5C 97.2679,457.737 97.7679,456.737 98,455.5C 99.995,457.747 102.495,458.747 105.5,458.5 Z"/></g>
<g><path style="opacity:1" fill="#201f45" d="M 117.5,443.5 C 116.505,450.13 115.838,456.797 115.5,463.5C 111.604,462.885 108.27,461.219 105.5,458.5C 108.747,452.917 112.747,447.917 117.5,443.5 Z"/></g>
<g><path style="opacity:1" fill="#6b6c87" d="M 522.5,459.5 C 526.676,458.831 528.009,460.331 526.5,464C 525.207,464.49 523.873,464.657 522.5,464.5C 522.5,462.833 522.5,461.167 522.5,459.5 Z"/></g>
<g><path style="opacity:1" fill="#6c6d87" d="M 480.5,472.5 C 484.138,471.737 485.638,473.07 485,476.5C 481.331,478.009 479.831,476.676 480.5,472.5 Z"/></g>
<g><path style="opacity:1" fill="#6f7088" d="M 438.5,474.5 C 442.161,474.35 443.161,475.85 441.5,479C 440.207,479.49 438.873,479.657 437.5,479.5C 437.366,477.708 437.699,476.042 438.5,474.5 Z"/></g>
<g><path style="opacity:1" fill="#45a1b8" d="M 720.5,492.5 C 731.653,512.499 744.986,530.999 760.5,548C 756.019,549.954 751.352,551.287 746.5,552C 738.833,552.667 731.167,552.667 723.5,552C 713.644,549.657 703.977,546.824 694.5,543.5C 699.004,525.986 703.004,508.319 706.5,490.5C 707.641,488.912 709.141,487.579 711,486.5C 713.83,489.188 716.996,491.188 720.5,492.5 Z"/></g>
<g><path style="opacity:1" fill="#1d1f45" d="M 193.5,499.5 C 196.5,499.5 199.5,499.5 202.5,499.5C 205.287,500.477 208.287,500.81 211.5,500.5C 214.342,534.453 216.676,568.453 218.5,602.5C 217.2,646.523 215.534,690.523 213.5,734.5C 207.5,734.5 201.5,734.5 195.5,734.5C 195.666,729.821 195.499,725.155 195,720.5C 194.501,725.489 194.334,730.489 194.5,735.5C 191.833,735.5 189.167,735.5 186.5,735.5C 188.607,734.532 190.941,734.198 193.5,734.5C 193.666,729.489 193.499,724.489 193,719.5C 192.501,724.155 192.334,728.821 192.5,733.5C 189.921,733.917 187.754,733.25 186,731.5C 181.197,701.347 175.53,671.347 169,641.5C 168.506,643.134 168.34,644.801 168.5,646.5C 167.396,642.522 166.063,638.522 164.5,634.5C 165.482,631.038 165.815,627.371 165.5,623.5C 172.747,602.512 178.747,581.179 183.5,559.5C 186.216,572.606 188.383,585.94 190,599.5C 191.234,636.513 192.734,673.513 194.5,710.5C 194.833,707.167 195.167,703.833 195.5,700.5C 194.086,666.842 192.92,633.176 192,599.5C 190.008,585.054 187.508,570.72 184.5,556.5C 187.783,537.513 190.783,518.513 193.5,499.5 Z"/></g>
<g><path style="opacity:1" fill="#44a1b8" d="M 183.5,499.5 C 186.833,499.5 190.167,499.5 193.5,499.5C 190.783,518.513 187.783,537.513 184.5,556.5C 183.596,557.209 183.263,558.209 183.5,559.5C 178.747,581.179 172.747,602.512 165.5,623.5C 162.885,626.187 160.885,630.02 159.5,635C 159.836,636.03 160.503,636.53 161.5,636.5C 145.265,675.216 126.931,712.883 106.5,749.5C 102.167,749.5 97.8333,749.5 93.5,749.5C 94.2946,746.45 95.2946,743.45 96.5,740.5C 100.796,739.672 105.129,739.172 109.5,739C 105.467,738.305 101.467,737.472 97.5,736.5C 101.972,722.938 105.972,709.271 109.5,695.5C 104.736,708.959 100.236,722.626 96,736.5C 91.5251,736.983 87.0251,737.316 82.5,737.5C 86.8333,738.167 91.1667,738.833 95.5,739.5C 94.0906,742.727 93.0906,746.06 92.5,749.5C 91.5,749.5 90.5,749.5 89.5,749.5C 85.7657,749.323 82.0991,749.656 78.5,750.5C 78.3654,744.37 79.1987,738.37 81,732.5C 86.7839,708.293 93.1173,684.293 100,660.5C 104.53,639.388 109.197,618.388 114,597.5C 115.598,566.452 114.765,535.452 111.5,504.5C 112.842,503.207 114.509,502.374 116.5,502C 138.854,501.557 161.187,500.723 183.5,499.5 Z"/></g>
<g><path style="opacity:0.756" fill="#090a2a" d="M 1129.5,456.5 C 1138.94,504.225 1147.27,552.225 1154.5,600.5C 1153.69,602.292 1153.19,604.292 1153,606.5C 1144.21,554.103 1135.54,501.77 1127,449.5C 1127.68,452.601 1128.51,454.934 1129.5,456.5 Z"/></g>
<g><path style="opacity:1" fill="#6c6d87" d="M 506.5,509.5 C 510.138,508.737 511.638,510.07 511,513.5C 506.415,515.413 504.915,514.079 506.5,509.5 Z"/></g>
<g><path style="opacity:1" fill="#6c6d87" d="M 463.5,513.5 C 467.138,512.737 468.638,514.07 468,517.5C 464.331,519.009 462.831,517.676 463.5,513.5 Z"/></g>
<g><path style="opacity:0.027" fill="#090927" d="M 548.5,528.5 C 550.067,529.681 550.901,531.347 551,533.5C 552.968,546.978 555.468,560.312 558.5,573.5C 557.504,573.586 556.671,573.252 556,572.5C 553.576,560.373 550.91,548.373 548,536.5C 547.199,533.633 547.366,530.966 548.5,528.5 Z"/></g>
<g><path style="opacity:0.52" fill="#0a0b2f" d="M 496.5,552.5 C 491.742,538.152 487.575,523.486 484,508.5C 482.667,507.167 481.333,507.167 480,508.5C 477.554,537.086 475.887,565.753 475,594.5C 474.722,595.416 474.222,596.082 473.5,596.5C 473.815,592.629 473.482,588.962 472.5,585.5C 473.353,559.415 475.02,533.415 477.5,507.5C 479,506.5 480.5,505.5 482,504.5C 483.944,505.439 485.611,506.773 487,508.5C 491.158,523.932 495.324,539.432 499.5,555C 499.333,555.5 499.167,556 499,556.5C 498.392,554.934 497.558,553.6 496.5,552.5 Z"/></g>
<g><path style="opacity:1" fill="#f2f8f9" d="M 787.5,406.5 C 796.526,417.34 803.026,429.674 807,443.5C 812.751,444.31 818.584,444.81 824.5,445C 819.22,446.095 813.887,446.595 808.5,446.5C 808.803,451.249 809.637,455.916 811,460.5C 811.667,467.833 811.667,475.167 811,482.5C 808.723,513.747 793.89,536.747 766.5,551.5C 776.071,560.898 786.905,568.564 799,574.5C 807.5,564.861 818,558.194 830.5,554.5C 830.5,556.833 830.5,559.167 830.5,561.5C 829.85,561.196 829.183,560.863 828.5,560.5C 819.009,563.823 811.009,569.323 804.5,577C 812.815,580.745 821.482,583.245 830.5,584.5C 830.5,584.833 830.5,585.167 830.5,585.5C 821.185,584.963 812.351,582.63 804,578.5C 795.332,590.809 792.332,604.476 795,619.5C 798.531,636.369 807.031,650.202 820.5,661C 821.793,661.49 823.127,661.657 824.5,661.5C 823.659,663.379 823.325,665.379 823.5,667.5C 822.127,667.657 820.793,667.49 819.5,667C 788.732,641.773 781.399,611.273 797.5,575.5C 785.534,568.939 774.368,561.272 764,552.5C 748.543,558.914 732.71,560.081 716.5,556C 708.423,553.585 700.423,551.085 692.5,548.5C 692.893,546.716 693.559,545.05 694.5,543.5C 703.977,546.824 713.644,549.657 723.5,552C 731.167,552.667 738.833,552.667 746.5,552C 751.352,551.287 756.019,549.954 760.5,548C 744.986,530.999 731.653,512.499 720.5,492.5C 720.833,492.5 721.167,492.5 721.5,492.5C 722.167,492.5 722.5,492.833 722.5,493.5C 733.397,513.29 746.731,531.29 762.5,547.5C 773.218,542.21 782.384,534.876 790,525.5C 806.254,500.824 810.421,474.157 802.5,445.5C 788.515,443.007 775.848,437.507 764.5,429C 763.177,428.184 762.511,427.017 762.5,425.5C 762.833,425.5 763.167,425.5 763.5,425.5C 774.26,435.379 786.927,441.212 801.5,443C 796.916,430.994 790.916,419.827 783.5,409.5C 784.262,407.738 785.596,406.738 787.5,406.5 Z"/></g>
<g><path style="opacity:0.43" fill="#0b0f33" d="M 1027.5,402.5 C 1028.13,402.88 1028.8,403.213 1029.5,403.5C 1023.64,417.284 1019.8,431.618 1018,446.5C 1015.59,476.788 1014.92,507.121 1016,537.5C 1020,603.717 1026.17,669.717 1034.5,735.5C 1033.5,735.5 1032.5,735.5 1031.5,735.5C 1024.95,682.051 1019.45,628.384 1015,574.5C 1012.71,540.533 1012.05,506.533 1013,472.5C 1013.77,451.408 1017.11,430.742 1023,410.5C 1024.8,407.901 1026.3,405.234 1027.5,402.5 Z"/></g>
<g><path style="opacity:1" fill="#c7e2e9" d="M 143.5,502.5 C 144.319,505.305 144.819,508.305 145,511.5C 145.667,535.5 145.667,559.5 145,583.5C 144.607,586.633 143.774,589.633 142.5,592.5C 142.167,592.333 141.833,592.167 141.5,592C 142.597,587.926 143.43,583.76 144,579.5C 144.531,553.829 144.365,528.162 143.5,502.5 Z"/></g>
<g><path style="opacity:1" fill="#45a1b8" d="M 692.5,548.5 C 700.423,551.085 708.423,553.585 716.5,556C 732.71,560.081 748.543,558.914 764,552.5C 774.368,561.272 785.534,568.939 797.5,575.5C 781.399,611.273 788.732,641.773 819.5,667C 820.793,667.49 822.127,667.657 823.5,667.5C 822.391,684.861 820.891,702.195 819,719.5C 818.167,721 817,722.167 815.5,723C 816.416,723.374 817.25,723.874 818,724.5C 818.667,727.167 818.667,729.833 818,732.5C 811.789,734.434 805.289,735.101 798.5,734.5C 797.167,734.5 795.833,734.5 794.5,734.5C 785.676,733.343 776.676,733.176 767.5,734C 766.584,734.278 765.918,734.778 765.5,735.5C 747.91,734.514 730.243,734.181 712.5,734.5C 711.833,734.5 711.5,734.167 711.5,733.5C 710.048,732.698 708.382,732.198 706.5,732C 724.658,716.39 734.324,696.556 735.5,672.5C 736.417,673.127 737.417,673.461 738.5,673.5C 755.137,682.485 771.137,692.485 786.5,703.5C 795.123,709.616 803.623,715.95 812,722.5C 812.667,720.167 812.667,717.833 812,715.5C 806.289,710.949 800.456,706.616 794.5,702.5C 778.494,689.859 761.161,679.192 742.5,670.5C 740.324,668.485 737.824,666.818 735,665.5C 730.338,631.028 714.171,603.361 686.5,582.5C 692.787,589.296 699.62,596.296 707,603.5C 719.597,618.697 727.931,636.031 732,655.5C 732.667,658.5 732.667,661.5 732,664.5C 712.7,654.934 692.866,646.601 672.5,639.5C 671.583,640.127 670.583,640.461 669.5,640.5C 676.146,609.613 683.812,578.947 692.5,548.5 Z"/></g>
<g><path style="opacity:1" fill="#6b6d87" d="M 537.5,550.5 C 539.167,550.5 540.833,550.5 542.5,550.5C 543.169,554.676 541.669,556.009 538,554.5C 537.51,553.207 537.343,551.873 537.5,550.5 Z"/></g>
<g><path style="opacity:1" fill="#6a6c87" d="M 433.5,556.5 C 434.833,556.5 436.167,556.5 437.5,556.5C 437.5,558.167 437.5,559.833 437.5,561.5C 433.065,562.078 431.732,560.411 433.5,556.5 Z"/></g>
<g><path style="opacity:1" fill="#45a1b8" d="M 830.5,561.5 C 830.5,569.167 830.5,576.833 830.5,584.5C 821.482,583.245 812.815,580.745 804.5,577C 811.009,569.323 819.009,563.823 828.5,560.5C 829.183,560.863 829.85,561.196 830.5,561.5 Z"/></g>
<g><path style="opacity:1" fill="#45a1b8" d="M 830.5,585.5 C 829.152,611.025 827.152,636.359 824.5,661.5C 823.127,661.657 821.793,661.49 820.5,661C 807.031,650.202 798.531,636.369 795,619.5C 792.332,604.476 795.332,590.809 804,578.5C 812.351,582.63 821.185,584.963 830.5,585.5 Z"/></g>
<g><path style="opacity:1" fill="#6c6d87" d="M 454.5,589.5 C 458.161,589.35 459.161,590.85 457.5,594C 456.207,594.49 454.873,594.657 453.5,594.5C 453.366,592.708 453.699,591.042 454.5,589.5 Z"/></g>
<g><path style="opacity:0.235" fill="#27284a" d="M 219.5,570.5 C 220.712,601.159 220.712,631.825 219.5,662.5C 219.237,631.826 219.237,601.16 219.5,570.5 Z"/></g>
<g><path style="opacity:1" fill="#686a85" d="M 525.5,597.5 C 529.676,596.831 531.009,598.331 529.5,602C 528.207,602.49 526.873,602.657 525.5,602.5C 525.5,600.833 525.5,599.167 525.5,597.5 Z"/></g>
<g><path style="opacity:0.831" fill="#08082a" d="M 562.5,597.5 C 565.135,610.485 567.801,623.485 570.5,636.5C 569.698,637.952 569.198,639.618 569,641.5C 565.951,627.207 563.118,612.874 560.5,598.5C 560.439,596.279 561.105,595.946 562.5,597.5 Z"/></g>
<g><path style="opacity:0.578" fill="#090e33" d="M 202.5,499.5 C 206.566,499.307 210.566,499.64 214.5,500.5C 216.386,523.812 218.052,547.146 219.5,570.5C 219.237,601.16 219.237,631.826 219.5,662.5C 218.68,684.831 217.847,707.164 217,729.5C 215.731,730.905 215.231,732.571 215.5,734.5C 214.833,734.5 214.167,734.5 213.5,734.5C 215.534,690.523 217.2,646.523 218.5,602.5C 216.676,568.453 214.342,534.453 211.5,500.5C 208.287,500.81 205.287,500.477 202.5,499.5 Z"/></g>
<g><path style="opacity:1" fill="#6c6d87" d="M 443.5,630.5 C 444.833,630.5 446.167,630.5 447.5,630.5C 447.5,632.167 447.5,633.833 447.5,635.5C 443.065,636.078 441.732,634.411 443.5,630.5 Z"/></g>
<g><path style="opacity:0.38" fill="#246c8d" d="M 165.5,623.5 C 165.815,627.371 165.482,631.038 164.5,634.5C 164.657,633.127 164.49,631.793 164,630.5C 163.062,632.488 162.228,634.488 161.5,636.5C 160.503,636.53 159.836,636.03 159.5,635C 160.885,630.02 162.885,626.187 165.5,623.5 Z"/></g>
<g><path style="opacity:1" fill="#c5e1e8" d="M 125.5,644.5 C 128.04,633.676 131.207,623.01 135,612.5C 133.778,619.521 132.112,626.521 130,633.5C 128.943,637.449 127.443,641.116 125.5,644.5 Z"/></g>
<g><path style="opacity:0.027" fill="#0c0e2d" d="M 548.5,722.5 C 536.068,684.477 524.068,646.144 512.5,607.5C 513.117,605.679 513.284,603.679 513,601.5C 515.531,608.091 517.864,614.758 520,621.5C 520.71,622.973 521.876,623.64 523.5,623.5C 523.435,629.948 524.268,629.948 526,623.5C 526.772,626.518 526.106,629.185 524,631.5C 523.667,630.833 523.333,630.167 523,629.5C 530.536,657.288 538.869,684.955 548,712.5C 549.227,715.874 549.394,719.208 548.5,722.5 Z"/></g>
<g><path style="opacity:1" fill="#676a83" d="M 558.5,634.5 C 560.484,634.484 561.484,635.484 561.5,637.5C 561.566,639.266 560.732,640.266 559,640.5C 555.911,638.796 555.745,636.796 558.5,634.5 Z"/></g>
<g><path style="opacity:1" fill="#45a1b8" d="M 683.5,733.5 C 682.833,733.5 682.167,733.5 681.5,733.5C 671.479,733.629 661.479,733.296 651.5,732.5C 651.922,720.045 653.422,707.711 656,695.5C 659.892,678.876 663.726,662.21 667.5,645.5C 668.583,645.461 669.583,645.127 670.5,644.5C 691.77,651.81 712.437,660.476 732.5,670.5C 733.229,695.876 723.563,716.376 703.5,732C 696.654,732.172 689.987,732.672 683.5,733.5 Z"/></g>
<g><path style="opacity:1" fill="#c4e1e7" d="M 125.5,644.5 C 125.66,646.199 125.494,647.866 125,649.5C 123.457,654.393 121.624,659.06 119.5,663.5C 120.724,656.833 122.724,650.499 125.5,644.5 Z"/></g>
<g><path style="opacity:1" fill="#a9abb9" d="M 184.5,556.5 C 187.508,570.72 190.008,585.054 192,599.5C 192.92,633.176 194.086,666.842 195.5,700.5C 195.167,703.833 194.833,707.167 194.5,710.5C 192.734,673.513 191.234,636.513 190,599.5C 188.383,585.94 186.216,572.606 183.5,559.5C 183.263,558.209 183.596,557.209 184.5,556.5 Z"/></g>
<g><path style="opacity:0.91" fill="#08082c" d="M 434.5,733.5 C 432.621,720.904 431.121,708.238 430,695.5C 427.368,658.123 425.035,620.789 423,583.5C 421.266,540.911 422.766,498.578 427.5,456.5C 428.117,456.389 428.617,456.056 429,455.5C 424.111,527.513 424.778,599.513 431,671.5C 433.463,697.099 435.629,722.432 437.5,747.5C 436.657,742.667 435.657,738 434.5,733.5 Z"/></g>
<g><path style="opacity:0.689" fill="#05062a" d="M 1086.5,542.5 C 1082.37,527.321 1078.54,511.988 1075,496.5C 1073.7,493.994 1072.7,491.327 1072,488.5C 1070.27,486.398 1068.27,486.065 1066,487.5C 1064.9,506.64 1064.4,525.807 1064.5,545C 1065.43,606.165 1065.59,667.332 1065,728.5C 1064.8,730.382 1064.3,732.048 1063.5,733.5C 1062.45,733.649 1061.45,733.483 1060.5,733C 1062.17,730.52 1063,727.687 1063,724.5C 1063.04,645.166 1063.04,565.833 1063,486.5C 1067.26,482.479 1071.26,482.812 1075,487.5C 1080.31,506.411 1084.98,525.411 1089,544.5C 1088.58,543.244 1087.75,542.577 1086.5,542.5 Z"/></g>
<g><path style="opacity:1" fill="#6e6f88" d="M 455.5,660.5 C 456.833,660.5 458.167,660.5 459.5,660.5C 459.5,662.167 459.5,663.833 459.5,665.5C 458.167,665.5 456.833,665.5 455.5,665.5C 455.5,663.833 455.5,662.167 455.5,660.5 Z"/></g>
<g><path style="opacity:0.99" fill="#eff5f4" d="M 742.5,670.5 C 741.789,672.201 740.455,673.201 738.5,673.5C 737.417,673.461 736.417,673.127 735.5,672.5C 734.324,696.556 724.658,716.39 706.5,732C 708.382,732.198 710.048,732.698 711.5,733.5C 707.167,733.5 702.833,733.5 698.5,733.5C 693.5,733.5 688.5,733.5 683.5,733.5C 689.987,732.672 696.654,732.172 703.5,732C 723.563,716.376 733.229,695.876 732.5,670.5C 712.437,660.476 691.77,651.81 670.5,644.5C 669.583,645.127 668.583,645.461 667.5,645.5C 668.441,643.95 669.107,642.284 669.5,640.5C 670.583,640.461 671.583,640.127 672.5,639.5C 692.866,646.601 712.7,654.934 732,664.5C 732.667,661.5 732.667,658.5 732,655.5C 727.931,636.031 719.597,618.697 707,603.5C 699.62,596.296 692.787,589.296 686.5,582.5C 714.171,603.361 730.338,631.028 735,665.5C 737.824,666.818 740.324,668.485 742.5,670.5 Z"/></g>
<g><path style="opacity:1" fill="#c9e4e9" d="M 119.5,663.5 C 117.141,674.571 113.808,685.238 109.5,695.5C 112.231,684.554 115.565,673.887 119.5,663.5 Z"/></g>
<g><path style="opacity:1" fill="#6a6c86" d="M 548.5,669.5 C 551.91,669.384 553.244,671.05 552.5,674.5C 550.833,674.5 549.167,674.5 547.5,674.5C 547.366,672.708 547.699,671.042 548.5,669.5 Z"/></g>
<g><path style="opacity:0.955" fill="#030120" d="M 472.5,585.5 C 473.482,588.962 473.815,592.629 473.5,596.5C 473.699,608.523 473.366,620.523 472.5,632.5C 470.274,669.975 469.274,707.641 469.5,745.5C 463.833,745.336 463.5,745.003 468.5,744.5C 468.501,691.461 469.834,638.461 472.5,585.5 Z"/></g>
<g><path style="opacity:0.274" fill="#8dc4d2" d="M 742.5,670.5 C 761.161,679.192 778.494,689.859 794.5,702.5C 791.615,702.194 788.948,702.527 786.5,703.5C 771.137,692.485 755.137,682.485 738.5,673.5C 740.455,673.201 741.789,672.201 742.5,670.5 Z"/></g>
<g><path style="opacity:0.975" fill="#e3f0f3" d="M 786.5,703.5 C 788.948,702.527 791.615,702.194 794.5,702.5C 800.456,706.616 806.289,710.949 812,715.5C 812.667,717.833 812.667,720.167 812,722.5C 803.623,715.95 795.123,709.616 786.5,703.5 Z"/></g>
<g><path style="opacity:1" fill="#6a6c85" d="M 452.5,706.5 C 453.833,706.5 455.167,706.5 456.5,706.5C 456.5,708.167 456.5,709.833 456.5,711.5C 452.065,712.078 450.732,710.411 452.5,706.5 Z"/></g>
<g><path style="opacity:1" fill="#6d6f89" d="M 568.5,710.5 C 571.91,710.384 573.244,712.05 572.5,715.5C 568.065,716.078 566.732,714.411 568.5,710.5 Z"/></g>
<g><path style="opacity:0.229" fill="#0a0c30" d="M 576.5,667.5 C 578.728,685.595 581.561,703.595 585,721.5C 586.411,730.452 587.244,739.452 587.5,748.5C 586.5,748.5 585.5,748.5 584.5,748.5C 584.414,747.504 584.748,746.671 585.5,746C 581.795,720.672 577.795,695.339 573.5,670C 573.667,668.833 573.833,667.667 574,666.5C 574.342,668.619 575.175,668.953 576.5,667.5 Z"/></g>
<g><path style="opacity:0.278" fill="#0c0d2e" d="M 1146.5,730.5 C 1144.83,730.5 1143.17,730.5 1141.5,730.5C 1139.69,728.615 1138.52,726.281 1138,723.5C 1130.34,697.193 1122.84,670.86 1115.5,644.5C 1116.22,644.082 1116.72,643.416 1117,642.5C 1125.94,672.386 1134.44,701.386 1142.5,729.5C 1144.1,729.232 1145.43,729.566 1146.5,730.5 Z"/></g>
<g><path style="opacity:0.655" fill="#0a0a2d" d="M 186.5,735.5 C 185.833,735.5 185.167,735.5 184.5,735.5C 178.848,705.921 173.514,676.255 168.5,646.5C 168.34,644.801 168.506,643.134 169,641.5C 175.53,671.347 181.197,701.347 186,731.5C 187.754,733.25 189.921,733.917 192.5,733.5C 192.334,728.821 192.501,724.155 193,719.5C 193.499,724.489 193.666,729.489 193.5,734.5C 190.941,734.198 188.607,734.532 186.5,735.5 Z"/></g>
<g><path style="opacity:0.999" fill="#fb907b" d="M 1161.5,748.5 C 1157.6,747.24 1153.93,745.573 1150.5,743.5C 1149.55,740.857 1148.55,738.19 1147.5,735.5C 1149.18,734.817 1149.84,733.483 1149.5,731.5C 1152.83,731.5 1156.17,731.5 1159.5,731.5C 1159.79,737.217 1160.46,742.884 1161.5,748.5 Z"/></g>
<g><path style="opacity:1" fill="#c4c6cf" d="M 213.5,734.5 C 214.167,734.5 214.833,734.5 215.5,734.5C 215.5,734.833 215.5,735.167 215.5,735.5C 208.82,735.612 202.153,735.946 195.5,736.5C 195.5,740.167 195.5,743.833 195.5,747.5C 194.833,743.833 194.167,740.167 193.5,736.5C 190.391,736.264 187.391,736.597 184.5,737.5C 184.5,736.833 184.5,736.167 184.5,735.5C 185.167,735.5 185.833,735.5 186.5,735.5C 189.167,735.5 191.833,735.5 194.5,735.5C 194.334,730.489 194.501,725.489 195,720.5C 195.499,725.155 195.666,729.821 195.5,734.5C 201.5,734.5 207.5,734.5 213.5,734.5 Z"/></g>
<g><path style="opacity:1" fill="#fdc267" d="M 681.5,733.5 C 682.167,733.5 682.833,733.5 683.5,733.5C 688.5,733.5 693.5,733.5 698.5,733.5C 696.419,743.153 694.419,752.82 692.5,762.5C 691.304,765.221 689.304,766.387 686.5,766C 684.016,762.186 681.682,758.353 679.5,754.5C 679.565,754.062 679.399,753.728 679,753.5C 678.392,755.066 677.558,756.4 676.5,757.5C 678.595,749.596 680.262,741.596 681.5,733.5 Z"/></g>
<g><path style="opacity:0.353" fill="#0f1338" d="M 472.5,632.5 C 472.049,663.337 471.382,694.171 470.5,725C 470.594,730.352 470.927,735.685 471.5,741C 471.693,743.008 471.026,744.508 469.5,745.5C 469.274,707.641 470.274,669.975 472.5,632.5 Z"/></g>
<g><path style="opacity:1" fill="#fac268" d="M 794.5,734.5 C 790.154,734.334 785.821,734.501 781.5,735C 782.486,744.75 782.819,754.584 782.5,764.5C 781.399,765.8 780.066,766.3 778.5,766C 775.386,762.94 772.886,759.44 771,755.5C 769.989,754.663 768.822,754.33 767.5,754.5C 768.453,748.846 768.286,743.18 767,737.5C 766.722,736.584 766.222,735.918 765.5,735.5C 765.918,734.778 766.584,734.278 767.5,734C 776.676,733.176 785.676,733.343 794.5,734.5 Z"/></g>
<g><path style="opacity:1" fill="#fa8f7a" d="M 1031.5,735.5 C 1032.5,735.5 1033.5,735.5 1034.5,735.5C 1038.5,735.5 1042.5,735.5 1046.5,735.5C 1046.5,740.5 1046.5,745.5 1046.5,750.5C 1041.43,749.797 1036.43,748.797 1031.5,747.5C 1034.1,743.469 1034.1,739.469 1031.5,735.5 Z"/></g>
<g><path style="opacity:1" fill="#c9e4eb" d="M 109.5,695.5 C 105.972,709.271 101.972,722.938 97.5,736.5C 101.467,737.472 105.467,738.305 109.5,739C 105.129,739.172 100.796,739.672 96.5,740.5C 95.2946,743.45 94.2946,746.45 93.5,749.5C 93.1667,749.5 92.8333,749.5 92.5,749.5C 93.0906,746.06 94.0906,742.727 95.5,739.5C 91.1667,738.833 86.8333,738.167 82.5,737.5C 87.0251,737.316 91.5251,736.983 96,736.5C 100.236,722.626 104.736,708.959 109.5,695.5 Z"/></g>
<g><path style="opacity:1" fill="#fcb24e" d="M 698.5,733.5 C 702.833,733.5 707.167,733.5 711.5,733.5C 711.5,734.167 711.833,734.5 712.5,734.5C 709.33,740.991 706.663,747.657 704.5,754.5C 704.158,755.338 703.492,755.672 702.5,755.5C 699.149,757.859 695.815,760.192 692.5,762.5C 694.419,752.82 696.419,743.153 698.5,733.5 Z"/></g>
<g><path style="opacity:1" fill="#fdb14e" d="M 794.5,734.5 C 795.833,734.5 797.167,734.5 798.5,734.5C 796.336,738.435 795.336,742.768 795.5,747.5C 795.289,750.486 795.956,753.153 797.5,755.5C 795.801,755.34 794.134,755.506 792.5,756C 789.588,759.419 786.254,762.252 782.5,764.5C 782.819,754.584 782.486,744.75 781.5,735C 785.821,734.501 790.154,734.334 794.5,734.5 Z"/></g>
<g><path style="opacity:1" fill="#1b1e44" d="M 215.5,735.5 C 215.5,739.833 215.5,744.167 215.5,748.5C 214.5,748.5 213.5,748.5 212.5,748.5C 207.025,747.511 201.358,747.178 195.5,747.5C 195.5,743.833 195.5,740.167 195.5,736.5C 202.153,735.946 208.82,735.612 215.5,735.5 Z"/></g>
<g><path style="opacity:1" fill="#d87677" d="M 1170.5,730.5 C 1169.17,734.5 1169.17,738.5 1170.5,742.5C 1169.5,742.586 1168.67,742.252 1168,741.5C 1166.75,743.001 1165.75,744.668 1165,746.5C 1164.18,747.823 1163.02,748.489 1161.5,748.5C 1160.46,742.884 1159.79,737.217 1159.5,731.5C 1156.17,731.5 1152.83,731.5 1149.5,731.5C 1149.84,733.483 1149.18,734.817 1147.5,735.5C 1147.59,734.504 1147.25,733.671 1146.5,733C 1144.69,732.243 1143.02,731.41 1141.5,730.5C 1143.17,730.5 1144.83,730.5 1146.5,730.5C 1154.68,730.075 1162.68,730.075 1170.5,730.5 Z"/></g>
<g><path style="opacity:1" fill="#db787a" d="M 1062.5,734.5 C 1061.6,737.391 1061.26,740.391 1061.5,743.5C 1059.86,742.782 1058.2,742.616 1056.5,743C 1053.85,746.487 1050.52,748.987 1046.5,750.5C 1046.5,745.5 1046.5,740.5 1046.5,735.5C 1051.79,734.658 1057.12,734.324 1062.5,734.5 Z"/></g>
<g><path style="opacity:1" fill="#181a3e" d="M 193.5,736.5 C 193.5,740.167 193.5,743.833 193.5,747.5C 191.585,747.216 189.919,747.549 188.5,748.5C 187.5,748.5 186.5,748.5 185.5,748.5C 185.276,744.821 184.942,741.154 184.5,737.5C 187.391,736.597 190.391,736.264 193.5,736.5 Z"/></g>
<g><path style="opacity:1" fill="#5a4057" d="M 193.5,736.5 C 194.167,740.167 194.833,743.833 195.5,747.5C 201.358,747.178 207.025,747.511 212.5,748.5C 208.5,748.5 204.5,748.5 200.5,748.5C 196.5,748.5 192.5,748.5 188.5,748.5C 189.919,747.549 191.585,747.216 193.5,747.5C 193.5,743.833 193.5,740.167 193.5,736.5 Z"/></g>
<g><path style="opacity:1" fill="#a84544" d="M 464.5,747.5 C 464.359,755.025 466.026,762.025 469.5,768.5C 463.48,768.761 457.48,768.928 451.5,769C 445.637,764.302 440.303,759.135 435.5,753.5C 436.497,753.53 437.164,753.03 437.5,752C 437.022,750.697 436.355,749.531 435.5,748.5C 443.885,748.435 452.218,747.768 460.5,746.5C 461.849,746.846 463.183,747.179 464.5,747.5 Z"/></g>
<g><path style="opacity:1" fill="#fa927d" d="M 89.5,749.5 C 90.5,749.5 91.5,749.5 92.5,749.5C 92.8333,749.5 93.1667,749.5 93.5,749.5C 97.8333,749.5 102.167,749.5 106.5,749.5C 106.468,751.619 107.468,752.952 109.5,753.5C 104.104,758.718 98.4376,763.885 92.5,769C 90.3258,769.877 88.6591,769.377 87.5,767.5C 88.6818,761.699 89.3484,755.699 89.5,749.5 Z"/></g>
<g><path style="opacity:1" fill="#f9927e" d="M 200.5,748.5 C 204.5,748.5 208.5,748.5 212.5,748.5C 213.5,748.5 214.5,748.5 215.5,748.5C 214.035,751.477 215.035,753.143 218.5,753.5C 211.448,757.712 205.448,763.212 200.5,770C 198.522,769.967 197.522,768.8 197.5,766.5C 198.314,760.469 199.314,754.469 200.5,748.5 Z"/></g>
<g><path style="opacity:1" fill="#a74644" d="M 584.5,748.5 C 585.5,748.5 586.5,748.5 587.5,748.5C 586.451,755.283 587.118,761.949 589.5,768.5C 588.833,768.5 588.167,768.5 587.5,768.5C 582.501,769.084 577.501,769.251 572.5,769C 567.692,763.779 562.358,759.279 556.5,755.5C 556.5,754.833 556.5,754.167 556.5,753.5C 559.481,753.206 560.148,751.872 558.5,749.5C 567.191,749.632 575.858,749.299 584.5,748.5 Z"/></g>
<g><path style="opacity:1" fill="#5ac099" d="M 1061.5,743.5 C 1062.71,751.421 1063.21,759.421 1063,767.5C 1061.47,768.72 1059.64,769.387 1057.5,769.5C 1053.85,770.295 1051.68,768.962 1051,765.5C 1049.47,766.729 1048.3,768.229 1047.5,770C 1034.49,770.833 1021.49,770.666 1008.5,769.5C 1008.02,768.522 1007.36,767.689 1006.5,767C 1008.71,765.279 1010.71,763.279 1012.5,761C 1018.43,755.9 1024.76,751.4 1031.5,747.5C 1036.43,748.797 1041.43,749.797 1046.5,750.5C 1050.52,748.987 1053.85,746.487 1056.5,743C 1058.2,742.616 1059.86,742.782 1061.5,743.5 Z"/></g>
<g><path style="opacity:1" fill="#58bf98" d="M 1170.5,742.5 C 1175.49,749.954 1180.16,757.787 1184.5,766C 1183.81,767.067 1183.31,768.234 1183,769.5C 1180.17,771 1178,773.167 1176.5,776C 1174.32,777.84 1171.82,779.007 1169,779.5C 1161.03,777.793 1153.87,774.46 1147.5,769.5C 1146.95,768.228 1146.62,766.894 1146.5,765.5C 1147.51,758.009 1148.85,750.676 1150.5,743.5C 1153.93,745.573 1157.6,747.24 1161.5,748.5C 1163.02,748.489 1164.18,747.823 1165,746.5C 1165.75,744.668 1166.75,743.001 1168,741.5C 1168.67,742.252 1169.5,742.586 1170.5,742.5 Z"/></g>
<g><path style="opacity:1" fill="#d3645e" d="M 89.5,749.5 C 89.3484,755.699 88.6818,761.699 87.5,767.5C 85.1076,763.722 82.9409,759.722 81,755.5C 80.0138,754.829 78.8471,754.829 77.5,755.5C 78.038,753.883 78.3713,752.216 78.5,750.5C 82.0991,749.656 85.7657,749.323 89.5,749.5 Z"/></g>
<g><path style="opacity:1" fill="#fba550" d="M 556.5,755.5 C 562.358,759.279 567.692,763.779 572.5,769C 577.501,769.251 582.501,769.084 587.5,768.5C 588.15,770.435 588.483,772.435 588.5,774.5C 575.671,774.903 562.838,775.236 550,775.5C 542.068,775.636 534.234,775.136 526.5,774C 536.397,767.557 546.397,761.391 556.5,755.5 Z"/></g>
<g><path style="opacity:1" fill="#57bf97" d="M 109.5,753.5 C 120.942,758.198 132.275,763.198 143.5,768.5C 145.684,771.807 146.017,775.307 144.5,779C 121.78,779.365 99.1129,779.698 76.5,780C 75.8778,778.431 75.5445,776.764 75.5,775C 76.1375,768.487 76.8041,761.987 77.5,755.5C 78.8471,754.829 80.0138,754.829 81,755.5C 82.9409,759.722 85.1076,763.722 87.5,767.5C 88.6591,769.377 90.3258,769.877 92.5,769C 98.4376,763.885 104.104,758.718 109.5,753.5 Z"/></g>
<g><path style="opacity:1" fill="#57bf97" d="M 218.5,753.5 C 230.042,758.27 241.375,763.603 252.5,769.5C 253.799,772.699 253.799,775.865 252.5,779C 229.801,779.387 207.134,779.72 184.5,780C 183.884,778.6 183.551,777.1 183.5,775.5C 184.168,769.49 184.834,763.49 185.5,757.5C 186.931,757.119 187.764,756.119 188,754.5C 191.411,758.399 194.578,762.399 197.5,766.5C 197.522,768.8 198.522,769.967 200.5,770C 205.448,763.212 211.448,757.712 218.5,753.5 Z"/></g>
<g><path style="opacity:1" fill="#faa24d" d="M 435.5,753.5 C 440.303,759.135 445.637,764.302 451.5,769C 457.48,768.928 463.48,768.761 469.5,768.5C 470.614,771.177 470.614,773.844 469.5,776.5C 464.565,777.448 459.565,777.781 454.5,777.5C 459.357,776.672 464.357,775.838 469.5,775C 455.339,774.897 441.172,775.064 427,775.5C 418.766,775.483 410.766,774.817 403,773.5C 402.617,774.056 402.117,774.389 401.5,774.5C 401.511,772.983 402.177,771.816 403.5,771C 414.061,764.888 424.727,759.055 435.5,753.5 Z"/></g>
<g><path style="opacity:1" fill="#fd5d66" d="M 767.5,754.5 C 768.822,754.33 769.989,754.663 771,755.5C 772.886,759.44 775.386,762.94 778.5,766C 780.066,766.3 781.399,765.8 782.5,764.5C 786.254,762.252 789.588,759.419 792.5,756C 794.134,755.506 795.801,755.34 797.5,755.5C 804.647,760.917 811.647,766.584 818.5,772.5C 818.586,773.496 818.252,774.329 817.5,775C 802.5,775.333 787.5,775.667 772.5,776C 776.025,776.179 779.359,776.679 782.5,777.5C 777.238,777.805 772.072,777.471 767,776.5C 766.548,769.156 766.715,761.823 767.5,754.5 Z"/></g>
<g><path style="opacity:1" fill="#d2625d" d="M 185.5,748.5 C 186.5,748.5 187.5,748.5 188.5,748.5C 192.5,748.5 196.5,748.5 200.5,748.5C 199.314,754.469 198.314,760.469 197.5,766.5C 194.578,762.399 191.411,758.399 188,754.5C 187.764,756.119 186.931,757.119 185.5,757.5C 186.372,754.421 186.372,751.421 185.5,748.5 Z"/></g>
<g><path style="opacity:0.271" fill="#f69439" d="M 556.5,753.5 C 556.5,754.167 556.5,754.833 556.5,755.5C 546.397,761.391 536.397,767.557 526.5,774C 534.234,775.136 542.068,775.636 550,775.5C 562.838,775.236 575.671,774.903 588.5,774.5C 588.483,772.435 588.15,770.435 587.5,768.5C 588.167,768.5 588.833,768.5 589.5,768.5C 591.17,771.629 590.836,774.462 588.5,777C 566.5,777.667 544.5,777.667 522.5,777C 521.14,775.062 521.473,773.396 523.5,772C 534.274,765.283 545.274,759.117 556.5,753.5 Z"/></g>
<g><path style="opacity:0.671" fill="#fa4850" d="M 679.5,754.5 C 677.295,761.113 675.295,767.78 673.5,774.5C 690.809,775.61 708.142,775.777 725.5,775C 717.642,768.635 709.975,762.135 702.5,755.5C 703.492,755.672 704.158,755.338 704.5,754.5C 711.791,760.112 719.124,765.778 726.5,771.5C 728.086,773.173 728.753,775.173 728.5,777.5C 709.497,777.667 690.497,777.5 671.5,777C 670.409,769.864 672.076,763.364 676.5,757.5C 677.558,756.4 678.392,755.066 679,753.5C 679.399,753.728 679.565,754.062 679.5,754.5 Z"/></g>
<g><path style="opacity:1" fill="#fd606a" d="M 679.5,754.5 C 681.682,758.353 684.016,762.186 686.5,766C 689.304,766.387 691.304,765.221 692.5,762.5C 695.815,760.192 699.149,757.859 702.5,755.5C 709.975,762.135 717.642,768.635 725.5,775C 708.142,775.777 690.809,775.61 673.5,774.5C 675.295,767.78 677.295,761.113 679.5,754.5 Z"/></g>
<g><path style="opacity:0.359" fill="#f79131" d="M 454.5,777.5 C 436.833,777.5 419.167,777.5 401.5,777.5C 401.5,776.5 401.5,775.5 401.5,774.5C 402.117,774.389 402.617,774.056 403,773.5C 410.766,774.817 418.766,775.483 427,775.5C 441.172,775.064 455.339,774.897 469.5,775C 464.357,775.838 459.357,776.672 454.5,777.5 Z"/></g>
<g><path style="opacity:0.243" fill="#fb3c47" d="M 818.5,772.5 C 820.22,773.751 820.553,775.251 819.5,777C 807.171,777.5 794.838,777.667 782.5,777.5C 779.359,776.679 776.025,776.179 772.5,776C 787.5,775.667 802.5,775.333 817.5,775C 818.252,774.329 818.586,773.496 818.5,772.5 Z"/></g>
</svg>
